{"glyphs":{"0":{"ha":1076,"x_min":98,"x_max":1001,"o":"m 1001 463 q 868 144 1001 277 q 550 12 735 12 q 231 144 364 12 q 98 463 98 277 q 231 781 98 648 q 550 914 364 914 q 868 781 735 914 q 1001 463 1001 648 m 920 463 q 810 724 920 614 q 550 833 701 833 q 289 724 397 833 q 180 463 180 614 q 289 202 180 311 q 550 93 398 93 q 810 202 701 93 q 920 463 920 311 z "},"1":{"ha":313,"x_min":127,"x_max":208,"o":"m 208 52 q 196 24 208 36 q 168 12 184 12 q 140 24 152 12 q 127 52 127 36 l 127 874 q 140 902 127 890 q 168 914 152 914 q 196 902 184 914 q 208 874 208 890 l 208 52 z "},"2":{"ha":753,"x_min":98,"x_max":649,"o":"m 649 52 q 637 24 649 36 q 609 12 625 12 l 162 12 q 134 24 146 12 q 121 52 121 36 q 133 80 121 66 l 501 483 q 568 632 568 555 q 500 780 568 724 q 342 833 436 833 q 210 786 278 833 q 138 739 142 739 q 110 751 121 739 q 98 779 98 763 q 139 838 98 804 q 342 914 231 914 q 558 838 470 914 q 649 632 649 758 q 559 426 649 527 l 264 93 l 609 93 q 637 81 625 93 q 649 52 649 68 z "},"3":{"ha":673,"x_min":98,"x_max":597,"o":"m 597 282 q 515 91 597 170 q 319 12 432 12 q 136 81 221 12 q 98 134 98 111 q 138 176 98 176 q 205 134 145 176 q 319 93 266 93 q 458 151 399 93 q 516 290 516 210 q 458 427 516 369 q 319 486 399 486 l 262 486 q 233 498 245 486 q 221 527 221 511 q 233 555 221 543 q 262 567 245 567 l 319 567 q 413 606 374 567 q 452 701 452 646 q 413 794 452 755 q 319 833 374 833 q 237 802 279 833 q 186 772 197 772 q 147 812 147 772 q 214 886 147 854 q 319 914 273 914 q 469 852 405 914 q 534 704 534 789 q 441 531 534 604 q 597 282 597 446 z "},"4":{"ha":822,"x_min":98,"x_max":718,"o":"m 718 52 q 705 24 718 36 q 677 12 693 12 q 649 24 661 12 q 637 52 637 36 l 637 307 l 139 307 q 111 319 123 307 q 98 347 98 331 q 109 376 98 360 l 372 781 q 406 799 383 799 q 434 786 422 799 q 446 757 446 773 q 440 736 446 745 l 214 388 l 637 388 l 637 874 q 649 902 637 890 q 677 914 661 914 q 705 902 693 914 q 718 874 718 890 l 718 52 z "},"5":{"ha":823,"x_min":96,"x_max":748,"o":"m 748 347 q 649 111 748 210 q 413 12 550 12 q 189 97 295 12 q 147 155 147 130 q 159 183 147 172 q 187 195 172 195 q 231 169 203 195 q 413 93 307 93 q 592 168 517 93 q 667 347 667 243 q 591 526 667 452 q 412 602 516 602 q 198 491 254 602 q 174 434 191 471 q 138 408 158 408 q 98 447 96 408 l 98 450 l 139 873 q 180 914 142 914 l 591 914 q 620 902 608 914 q 632 874 632 890 q 620 846 632 858 q 591 833 608 833 l 214 833 l 186 589 q 413 683 299 683 q 649 583 550 683 q 748 347 748 483 z "},"6":{"ha":845,"x_min":98,"x_max":770,"o":"m 770 347 q 671 111 770 210 q 434 12 572 12 q 197 111 296 12 q 98 347 98 210 q 177 564 98 469 l 460 901 q 490 914 471 914 q 518 902 506 914 q 530 874 530 890 q 519 847 530 860 l 377 673 q 446 680 428 680 q 675 581 580 680 q 770 347 770 481 m 688 347 q 614 527 688 452 q 434 602 539 602 q 254 527 329 602 q 180 347 180 452 q 254 168 180 242 q 434 93 329 93 q 614 168 539 93 q 688 347 688 242 z "},"7":{"ha":758,"x_min":69,"x_max":741,"o":"m 741 874 q 732 848 741 861 l 203 29 q 168 12 191 12 q 140 24 152 12 q 128 54 128 37 q 134 74 128 64 l 625 833 l 110 833 q 81 846 94 833 q 69 874 69 858 q 81 902 69 890 q 110 914 94 914 l 701 914 q 728 902 716 914 q 741 874 741 890 z "},"8":{"ha":729,"x_min":98,"x_max":654,"o":"m 654 282 q 571 91 654 170 q 376 12 488 12 q 181 92 263 12 q 98 283 98 172 q 256 531 98 448 q 162 704 162 601 q 226 852 162 790 q 376 914 290 914 q 526 852 463 914 q 590 704 590 790 q 498 531 590 601 q 654 282 654 448 m 509 701 q 470 794 509 755 q 376 833 431 833 q 282 794 321 833 q 243 701 243 755 q 282 606 243 646 q 376 567 321 567 q 470 606 431 567 q 509 701 509 646 m 573 290 q 514 427 573 369 q 376 486 456 486 q 238 427 296 486 q 180 290 180 369 q 238 151 180 210 q 376 93 296 93 q 514 151 456 93 q 573 290 573 209 z "},"9":{"ha":845,"x_min":98,"x_max":770,"o":"m 770 578 q 691 362 770 456 l 408 26 q 378 12 397 12 q 350 24 362 12 q 338 52 338 36 q 349 79 338 66 l 491 252 q 448 248 465 250 q 422 247 431 247 q 193 345 288 247 q 98 578 98 444 q 197 815 98 716 q 434 914 296 914 q 671 815 572 914 q 770 578 770 716 m 688 578 q 614 759 688 684 q 434 833 539 833 q 254 759 329 833 q 180 578 180 684 q 254 399 180 473 q 434 324 329 324 q 614 399 539 324 q 688 578 688 473 z "},"§":{"ha":694,"x_min":0,"x_max":0,"o":""},"!":{"ha":254,"x_min":98,"x_max":180,"o":"m 180 272 q 168 243 180 256 q 139 231 155 231 q 111 243 123 231 q 98 272 98 256 l 98 874 q 111 902 98 890 q 139 914 123 914 q 168 902 155 914 q 180 874 180 890 l 180 272 m 180 52 q 168 24 180 36 q 139 12 155 12 q 111 24 123 12 q 98 52 98 36 q 111 81 98 68 q 139 93 123 93 q 168 81 155 93 q 180 52 180 68 z "},"\"":{"ha":440,"x_min":98,"x_max":365,"o":"m 365 747 q 353 718 365 730 q 324 706 340 706 q 296 718 308 706 q 283 747 283 730 l 283 874 q 296 902 283 890 q 324 914 308 914 q 353 902 340 914 q 365 874 365 890 l 365 747 m 180 747 q 168 718 180 730 q 139 706 155 706 q 111 718 123 706 q 98 747 98 730 l 98 874 q 111 902 98 890 q 139 914 123 914 q 168 902 155 914 q 180 874 180 890 l 180 747 z "},"#":{"ha":845,"x_min":98,"x_max":770,"o":"m 770 463 q 758 435 770 447 q 729 422 745 422 l 576 422 l 564 285 q 519 243 560 243 q 492 255 503 243 q 483 283 481 267 l 495 422 l 345 422 l 332 285 q 288 243 329 243 q 261 255 272 243 q 251 283 250 267 l 264 422 l 139 422 q 111 435 123 422 q 98 463 98 447 q 111 491 98 479 q 139 503 123 503 l 271 503 l 285 654 l 139 654 q 111 666 123 654 q 98 694 98 678 q 111 723 98 711 q 139 735 123 735 l 290 735 l 303 873 q 349 914 306 914 q 374 902 363 914 q 385 874 385 889 l 372 735 l 522 735 l 534 873 q 580 914 538 914 q 606 902 595 914 q 616 874 617 889 l 603 735 l 729 735 q 758 723 745 735 q 770 694 770 711 q 758 666 770 678 q 729 654 745 654 l 597 654 l 583 503 l 729 503 q 758 491 745 503 q 770 463 770 479 m 516 654 l 366 654 l 352 503 l 503 503 l 516 654 z "},"$":{"ha":665,"x_min":98,"x_max":589,"o":"m 589 258 q 531 101 589 170 q 385 15 473 33 l 385 -62 q 372 -91 385 -79 q 344 -103 360 -103 q 302 -35 302 -103 q 302 -17 302 -29 q 303 15 302 -5 q 131 133 172 45 q 125 154 125 146 q 136 182 125 170 q 164 195 148 195 q 199 177 183 195 q 211 161 205 169 q 223 144 217 153 q 303 97 249 116 l 303 426 q 156 511 214 444 q 98 668 98 578 q 156 825 98 757 q 303 911 214 892 l 303 989 q 315 1018 303 1006 q 344 1030 328 1030 q 372 1018 360 1030 q 385 989 385 1006 l 385 911 q 557 793 516 881 q 562 772 562 779 q 551 744 562 755 q 523 732 539 732 q 488 749 505 732 q 464 781 477 765 q 385 829 439 810 l 385 500 q 531 414 473 481 q 589 258 589 347 m 303 508 l 303 829 q 180 668 180 783 q 303 508 180 554 m 508 258 q 385 418 508 372 l 385 97 q 508 258 508 144 z "},"%":{"ha":930,"x_min":98,"x_max":855,"o":"m 855 243 q 787 79 855 148 q 624 12 719 12 q 456 89 521 12 q 396 269 396 163 q 396 290 396 281 q 397 306 396 300 l 169 33 q 138 20 157 20 q 98 60 98 20 q 108 85 98 74 l 431 471 q 330 452 362 452 q 166 519 234 452 q 98 683 98 587 q 166 846 98 778 q 330 914 235 914 q 498 836 433 914 q 558 657 558 763 q 558 636 558 646 q 557 621 557 627 l 785 892 q 816 906 796 906 q 855 866 855 906 q 846 840 855 851 l 522 455 q 624 475 591 475 q 787 406 718 475 q 855 243 855 338 m 480 683 q 435 789 480 744 q 330 833 391 833 q 224 789 269 833 q 180 683 180 743 q 224 576 180 622 q 330 532 269 532 q 435 576 391 532 q 480 683 480 621 m 774 243 q 730 349 774 304 q 624 393 685 393 q 517 349 562 393 q 473 243 473 304 q 517 137 473 182 q 624 93 563 93 q 730 137 684 93 q 774 243 774 182 z "},"&":{"ha":673,"x_min":98,"x_max":597,"o":"m 597 52 q 585 24 597 36 q 557 12 573 12 q 514 50 530 12 q 376 12 440 12 q 181 91 263 12 q 98 282 98 170 q 254 531 98 446 q 162 704 162 603 q 226 852 162 790 q 376 914 290 914 q 471 891 415 914 q 509 914 488 914 q 538 902 526 914 q 550 874 550 890 l 550 696 q 538 669 550 681 q 509 656 526 656 q 481 669 493 656 q 469 696 469 681 l 469 795 q 376 833 422 833 q 283 793 323 833 q 243 701 243 753 q 282 606 243 646 q 376 567 321 567 l 434 567 q 463 555 450 567 q 475 527 475 543 q 463 498 475 511 q 434 486 450 486 l 376 486 q 238 427 296 486 q 180 290 180 369 q 238 151 180 210 q 376 93 296 93 q 516 153 440 93 l 516 250 q 528 278 516 267 q 557 290 541 290 q 585 278 573 290 q 597 250 597 267 l 597 52 z "},"'":{"ha":254,"x_min":98,"x_max":180,"o":"m 180 747 q 168 718 180 730 q 139 706 155 706 q 111 718 123 706 q 98 747 98 730 l 98 874 q 111 902 98 890 q 139 914 123 914 q 168 902 155 914 q 180 874 180 890 l 180 747 z "},"(":{"ha":405,"x_min":98,"x_max":330,"o":"m 330 -62 q 318 -91 330 -79 q 290 -103 306 -103 q 252 -77 271 -103 q 98 463 98 140 q 252 1004 98 798 q 290 1030 271 1030 q 330 989 330 1030 q 302 926 330 975 q 283 894 292 910 q 264 861 273 878 q 180 463 180 701 q 262 62 180 218 q 282 31 272 46 q 302 0 292 15 q 330 -62 330 -48 z "},")":{"ha":405,"x_min":98,"x_max":330,"o":"m 330 463 q 176 -77 330 140 q 139 -103 157 -103 q 111 -91 123 -103 q 98 -62 98 -79 q 126 0 98 -48 q 146 31 136 15 q 165 62 156 46 q 249 463 249 218 q 164 861 249 700 q 145 894 155 878 q 126 926 136 910 q 98 989 98 975 q 138 1030 98 1030 q 176 1004 157 1030 q 330 463 330 798 z "},"*":{"ha":565,"x_min":98,"x_max":490,"o":"m 490 606 q 448 564 490 564 q 431 570 439 564 l 321 653 q 331 550 328 585 q 334 511 334 515 q 322 486 334 496 q 294 475 309 475 q 266 486 279 475 q 254 511 254 496 q 257 551 254 515 q 267 653 260 586 l 157 570 q 140 564 149 564 q 98 606 98 564 q 117 639 98 631 l 256 694 l 117 750 q 98 783 98 757 q 140 825 98 825 q 157 819 149 825 l 267 736 q 257 838 260 803 q 254 878 254 873 q 266 903 254 892 q 294 914 279 914 q 322 904 309 914 q 334 878 334 894 q 331 838 334 873 q 321 736 328 803 l 431 819 q 448 825 439 825 q 490 783 490 825 q 471 750 490 757 l 332 694 l 471 639 q 490 606 490 631 z "},"+":{"ha":614,"x_min":98,"x_max":538,"o":"m 538 463 q 526 435 538 447 q 498 422 514 422 l 359 422 l 359 283 q 347 255 359 267 q 318 243 334 243 q 290 255 302 243 q 278 283 278 267 l 278 422 l 139 422 q 111 435 123 422 q 98 463 98 447 q 111 491 98 479 q 139 503 123 503 l 278 503 l 278 642 q 290 671 278 659 q 318 683 302 683 q 347 671 334 683 q 359 642 359 659 l 359 503 l 498 503 q 526 491 514 503 q 538 463 538 479 z "},",":{"ha":254,"x_min":98,"x_max":180,"o":"m 180 -62 q 168 -91 180 -79 q 139 -103 155 -103 q 111 -91 123 -103 q 98 -62 98 -79 l 98 64 q 111 92 98 80 q 139 104 123 104 q 168 92 155 104 q 180 64 180 80 l 180 -62 z "},"-":{"ha":614,"x_min":98,"x_max":538,"o":"m 538 463 q 526 435 538 447 q 498 422 514 422 l 139 422 q 111 435 123 422 q 98 463 98 447 q 111 491 98 479 q 139 503 123 503 l 498 503 q 526 491 514 503 q 538 463 538 479 z "},".":{"ha":254,"x_min":98,"x_max":180,"o":"m 180 52 q 168 24 180 36 q 139 12 155 12 q 111 24 123 12 q 98 52 98 36 q 111 81 98 68 q 139 93 123 93 q 168 81 155 93 q 180 52 180 68 z "},"/":{"ha":359,"x_min":41,"x_max":341,"o":"m 341 978 q 341 975 341 977 q 340 970 341 973 l 120 -59 q 81 -92 113 -92 q 53 -79 65 -92 q 41 -51 41 -67 q 41 -47 41 -50 q 41 -43 41 -46 l 262 986 q 301 1019 269 1019 q 329 1006 317 1019 q 341 978 341 994 z "},":":{"ha":254,"x_min":98,"x_max":180,"o":"m 180 515 q 168 487 180 499 q 139 475 155 475 q 111 487 123 475 q 98 515 98 499 q 111 543 98 531 q 139 555 123 555 q 168 543 155 555 q 180 515 180 531 m 180 52 q 168 24 180 36 q 139 12 155 12 q 111 24 123 12 q 98 52 98 36 q 111 81 98 68 q 139 93 123 93 q 168 81 155 93 q 180 52 180 68 z "},";":{"ha":254,"x_min":98,"x_max":180,"o":"m 180 515 q 168 487 180 499 q 139 475 155 475 q 111 487 123 475 q 98 515 98 499 q 111 543 98 531 q 139 555 123 555 q 168 543 155 555 q 180 515 180 531 m 180 -62 q 168 -91 180 -79 q 139 -103 155 -103 q 111 -91 123 -103 q 98 -62 98 -79 l 98 64 q 111 92 98 80 q 139 104 123 104 q 168 92 155 104 q 180 64 180 80 l 180 -62 z "},"<":{"ha":614,"x_min":98,"x_max":538,"o":"m 538 219 q 498 178 538 178 q 484 180 488 178 l 136 420 q 98 463 98 446 q 136 506 98 481 l 484 745 q 495 748 487 748 q 538 707 538 748 q 511 669 538 686 l 203 463 l 511 257 q 538 219 538 240 z "},"=":{"ha":614,"x_min":98,"x_max":538,"o":"m 538 578 q 526 550 538 562 q 498 538 514 538 l 139 538 q 111 550 123 538 q 98 578 98 562 q 111 607 98 595 q 139 619 123 619 l 498 619 q 526 607 514 619 q 538 578 538 595 m 538 347 q 526 319 538 331 q 498 307 514 307 l 139 307 q 111 319 123 307 q 98 347 98 331 q 111 376 98 363 q 139 388 123 388 l 498 388 q 526 376 514 388 q 538 347 538 363 z "},">":{"ha":614,"x_min":98,"x_max":538,"o":"m 538 463 q 501 420 538 446 l 153 180 q 139 178 149 178 q 98 219 98 178 q 125 257 98 239 l 434 463 l 125 669 q 98 707 98 686 q 141 748 98 748 q 153 745 150 748 l 501 506 q 538 463 538 481 z "},"?":{"ha":637,"x_min":98,"x_max":562,"o":"m 562 668 q 490 494 562 567 q 317 422 418 422 q 222 375 243 422 q 211 272 211 348 q 199 243 211 256 q 170 231 186 231 q 142 243 154 231 q 130 272 130 256 l 130 295 q 164 455 130 412 q 317 503 204 503 q 433 552 385 503 q 481 668 481 601 q 433 784 481 735 q 317 833 385 833 q 227 807 264 833 q 178 758 211 795 q 138 732 155 732 q 110 744 121 732 q 98 772 98 755 q 104 793 98 779 q 193 882 130 848 q 317 914 253 914 q 490 841 417 914 q 562 668 562 768 m 211 52 q 199 24 211 36 q 170 12 186 12 q 142 24 154 12 q 130 52 130 36 q 142 81 130 68 q 170 93 154 93 q 199 81 186 93 q 211 52 211 68 z "},"@":{"ha":1076,"x_min":98,"x_max":1001,"o":"m 1001 463 q 868 144 1001 277 q 550 12 735 12 q 231 144 364 12 q 98 463 98 277 q 231 781 98 648 q 550 914 364 914 q 868 781 735 914 q 1001 463 1001 648 m 920 463 q 810 724 920 614 q 550 833 701 833 q 289 724 397 833 q 180 463 180 614 q 289 202 180 311 q 550 93 398 93 q 810 202 701 93 q 920 463 920 311 m 802 667 l 768 262 q 752 233 766 245 q 722 220 739 220 q 686 256 686 220 q 687 270 686 257 q 691 309 688 283 q 519 220 610 220 q 362 284 428 220 q 298 441 298 349 q 378 626 298 547 q 564 706 458 706 q 719 617 652 706 q 766 706 721 706 q 791 694 780 706 q 802 669 803 683 l 802 667 m 704 475 q 661 582 704 538 q 554 625 617 625 q 432 572 485 625 q 380 450 380 519 q 423 345 380 388 q 529 301 467 301 q 651 353 597 301 q 704 475 704 406 z "},"A":{"ha":773,"x_min":23,"x_max":773,"o":"m 773 52 q 761 24 773 36 q 734 12 749 12 q 694 37 705 12 l 611 243 l 185 243 l 102 37 q 62 12 92 12 q 35 24 47 12 q 23 52 23 36 q 26 67 23 62 l 359 882 q 398 914 372 914 q 437 882 424 914 l 771 67 q 773 52 773 61 m 578 324 l 398 766 l 219 324 l 578 324 z "},"B":{"ha":758,"x_min":69,"x_max":741,"o":"m 741 257 q 668 83 741 156 q 495 12 596 12 l 69 12 l 69 914 l 472 914 q 645 842 572 914 q 718 669 718 769 q 604 469 718 550 q 741 257 741 392 m 637 669 q 588 785 637 736 q 472 833 539 833 l 151 833 l 151 503 l 472 503 q 588 552 539 503 q 637 669 637 602 m 660 257 q 611 373 660 324 q 495 422 562 422 l 151 422 l 151 93 l 495 93 q 611 141 562 93 q 660 257 660 190 z "},"C":{"ha":869,"x_min":41,"x_max":823,"o":"m 823 172 q 762 102 823 143 q 492 12 628 12 q 174 144 307 12 q 41 463 41 277 q 174 781 41 648 q 492 914 307 914 q 762 824 628 914 q 823 753 823 782 q 811 725 823 737 q 783 713 799 713 q 747 730 766 713 q 731 744 739 737 q 715 758 723 751 q 492 833 626 833 q 231 724 340 833 q 121 463 121 614 q 231 202 121 311 q 492 93 341 93 q 715 168 625 93 q 731 182 723 174 q 748 197 740 191 q 766 209 757 204 q 783 213 774 213 q 811 201 799 213 q 823 172 823 189 z "},"D":{"ha":886,"x_min":69,"x_max":868,"o":"m 868 463 q 734 144 868 278 q 416 12 602 12 l 69 12 l 69 914 l 416 914 q 734 781 602 914 q 868 463 868 648 m 787 463 q 677 724 787 614 q 416 833 568 833 l 151 833 l 151 93 l 416 93 q 677 202 568 93 q 787 463 787 311 z "},"E":{"ha":729,"x_min":69,"x_max":683,"o":"m 683 52 q 671 24 683 36 q 642 12 659 12 l 110 12 q 81 24 94 12 q 69 52 69 36 l 69 874 q 81 902 69 890 q 110 914 94 914 l 642 914 q 671 902 659 914 q 683 874 683 890 q 671 846 683 858 q 642 833 659 833 l 151 833 l 151 503 l 527 503 q 555 491 543 503 q 567 463 567 479 q 555 435 567 447 q 527 422 543 422 l 151 422 l 151 93 l 642 93 q 671 81 659 93 q 683 52 683 68 z "},"F":{"ha":701,"x_min":69,"x_max":683,"o":"m 683 874 q 671 846 683 858 q 642 833 659 833 l 151 833 l 151 503 l 527 503 q 555 491 543 503 q 567 463 567 479 q 555 435 567 447 q 527 422 543 422 l 151 422 l 151 52 q 138 24 151 36 q 110 12 126 12 q 81 24 94 12 q 69 52 69 36 l 69 874 q 81 902 69 890 q 110 914 94 914 l 642 914 q 671 902 659 914 q 683 874 683 890 z "},"G":{"ha":884,"x_min":41,"x_max":838,"o":"m 838 52 q 826 24 838 36 q 798 12 814 12 q 758 51 765 12 q 757 72 758 56 q 757 118 757 89 q 492 12 640 12 q 174 144 307 12 q 41 463 41 277 q 174 781 41 648 q 492 914 307 914 q 762 824 626 914 q 823 753 823 783 q 811 725 823 737 q 783 713 799 713 q 765 717 774 713 q 748 728 757 722 q 732 743 740 735 q 716 758 724 751 q 492 833 629 833 q 231 724 340 833 q 121 463 121 614 q 231 202 121 311 q 492 93 341 93 q 757 205 637 93 l 757 422 l 428 422 q 400 435 412 422 q 388 463 388 447 q 400 491 388 479 q 428 503 412 503 l 798 503 q 826 491 814 503 q 838 463 838 479 l 838 52 z "},"H":{"ha":903,"x_min":69,"x_max":857,"o":"m 857 52 q 844 24 857 36 q 816 12 832 12 q 787 24 800 12 q 775 52 775 36 l 775 422 l 151 422 l 151 52 q 138 24 151 36 q 110 12 126 12 q 81 24 94 12 q 69 52 69 36 l 69 874 q 81 902 69 890 q 110 914 94 914 q 138 902 126 914 q 151 874 151 890 l 151 503 l 775 503 l 775 874 q 787 902 775 890 q 816 914 800 914 q 844 902 832 914 q 857 874 857 890 l 857 52 z "},"I":{"ha":197,"x_min":69,"x_max":151,"o":"m 151 52 q 138 24 151 36 q 110 12 126 12 q 81 24 94 12 q 69 52 69 36 l 69 874 q 81 902 69 890 q 110 914 94 914 q 138 902 126 914 q 151 874 151 890 l 151 52 z "},"J":{"ha":669,"x_min":23,"x_max":623,"o":"m 623 336 q 523 106 623 200 q 287 12 425 12 q 61 96 164 12 q 23 151 23 128 q 35 178 23 167 q 64 190 47 190 q 142 141 67 190 q 287 93 216 93 q 466 163 389 93 q 542 336 542 233 l 542 874 q 554 902 542 890 q 582 914 566 914 q 610 902 598 914 q 623 874 623 890 l 623 336 z "},"K":{"ha":701,"x_min":69,"x_max":683,"o":"m 683 52 q 644 12 683 12 q 612 26 623 12 l 298 401 l 151 223 l 151 52 q 138 24 151 36 q 110 12 126 12 q 81 24 94 12 q 69 52 69 36 l 69 874 q 81 902 69 890 q 110 914 94 914 q 138 902 126 914 q 151 874 151 890 l 151 349 l 612 901 q 644 914 624 914 q 683 874 683 914 q 673 847 683 859 l 352 463 l 673 79 q 683 52 683 67 z "},"L":{"ha":701,"x_min":69,"x_max":683,"o":"m 683 52 q 671 24 683 36 q 642 12 659 12 l 110 12 q 81 24 94 12 q 69 52 69 36 l 69 874 q 81 902 69 890 q 110 914 94 914 q 138 902 126 914 q 151 874 151 890 l 151 93 l 642 93 q 671 81 659 93 q 683 52 683 68 z "},"M":{"ha":961,"x_min":69,"x_max":914,"o":"m 914 52 q 902 24 914 36 q 874 12 890 12 q 846 24 858 12 q 833 52 833 36 l 833 740 l 519 254 q 492 226 501 226 q 464 254 483 226 l 151 740 l 151 52 q 138 24 151 36 q 110 12 126 12 q 81 24 94 12 q 69 52 69 36 l 69 874 q 81 902 69 890 q 110 914 94 914 q 146 897 135 914 l 492 362 l 838 897 q 874 914 849 914 q 902 902 890 914 q 914 874 914 890 l 914 52 z "},"N":{"ha":903,"x_min":69,"x_max":857,"o":"m 857 52 q 844 24 857 36 q 816 12 832 12 q 781 33 800 12 l 151 760 l 151 52 q 138 24 151 36 q 110 12 126 12 q 81 24 94 12 q 69 52 69 36 l 69 874 q 81 902 69 890 q 110 914 94 914 q 138 903 127 914 l 775 165 l 775 874 q 787 902 775 890 q 816 914 800 914 q 844 902 832 914 q 857 874 857 890 l 857 52 z "},"O":{"ha":961,"x_min":41,"x_max":943,"o":"m 943 463 q 810 144 943 278 q 492 12 677 12 q 174 144 307 12 q 41 463 41 277 q 174 781 41 648 q 492 914 307 914 q 810 781 677 914 q 943 463 943 648 m 862 463 q 753 724 862 616 q 492 833 644 833 q 230 724 339 833 q 121 463 121 616 q 230 201 121 310 q 492 93 338 93 q 753 201 645 93 q 862 463 862 310 z "},"P":{"ha":758,"x_min":69,"x_max":741,"o":"m 741 611 q 651 396 741 486 q 437 307 562 307 l 151 307 l 151 52 q 138 24 151 36 q 110 12 126 12 q 81 24 94 12 q 69 52 69 36 l 69 914 l 437 914 q 651 825 562 914 q 741 611 741 736 m 660 611 q 594 768 660 703 q 437 833 529 833 l 151 833 l 151 388 l 437 388 q 594 454 529 388 q 660 611 660 519 z "},"Q":{"ha":961,"x_min":41,"x_max":943,"o":"m 943 463 q 796 130 943 272 l 903 23 q 914 -5 914 12 q 902 -33 914 -21 q 874 -45 890 -45 q 845 -33 856 -45 l 732 81 q 492 12 616 12 q 174 144 307 12 q 41 463 41 277 q 174 781 41 648 q 492 914 307 914 q 810 781 677 914 q 943 463 943 648 m 862 463 q 753 724 862 616 q 492 833 644 833 q 231 724 340 833 q 121 463 121 614 q 231 202 121 311 q 492 93 341 93 q 673 139 579 93 l 578 234 q 566 262 566 245 q 578 290 566 279 q 606 302 590 302 q 635 290 624 302 l 740 186 q 862 463 862 303 z "},"R":{"ha":758,"x_min":69,"x_max":741,"o":"m 741 52 q 728 24 741 36 q 701 12 716 12 q 673 23 684 12 l 389 307 l 151 307 l 151 52 q 138 24 151 36 q 110 12 126 12 q 81 24 94 12 q 69 52 69 36 l 69 914 l 437 914 q 651 825 562 914 q 741 611 741 736 q 671 420 741 503 q 499 313 605 341 l 729 81 q 741 52 741 69 m 660 611 q 594 768 660 703 q 437 833 529 833 l 151 833 l 151 388 l 437 388 q 594 454 529 388 q 660 611 660 519 z "},"S":{"ha":549,"x_min":41,"x_max":531,"o":"m 531 258 q 458 84 531 158 q 286 12 386 12 q 163 44 222 12 q 73 133 100 78 q 67 154 67 144 q 79 182 67 170 q 106 195 90 195 q 144 172 126 195 q 153 161 147 168 q 165 144 158 154 q 286 93 213 93 q 401 142 353 93 q 450 258 450 191 q 401 374 450 326 q 286 422 353 422 q 113 494 184 422 q 41 668 41 566 q 113 841 41 769 q 286 914 184 914 q 408 882 349 914 q 499 793 471 848 q 505 772 505 781 q 493 744 505 755 q 465 732 481 732 q 428 753 446 732 q 419 765 425 758 q 406 781 414 772 q 286 833 358 833 q 170 784 219 833 q 121 668 121 735 q 170 552 121 601 q 286 503 219 503 q 458 431 386 503 q 531 258 531 358 z "},"T":{"ha":810,"x_min":23,"x_max":810,"o":"m 810 874 q 798 846 810 858 q 770 833 786 833 l 457 833 l 457 52 q 445 24 457 36 q 416 12 433 12 q 389 24 401 12 q 376 52 376 36 l 376 833 l 64 833 q 35 846 47 833 q 23 874 23 858 q 35 902 23 890 q 64 914 47 914 l 770 914 q 798 902 786 914 q 810 874 810 890 z "},"U":{"ha":903,"x_min":69,"x_max":857,"o":"m 857 405 q 741 127 857 243 q 463 12 625 12 q 185 127 302 12 q 69 405 69 243 l 69 874 q 81 902 69 890 q 110 914 94 914 q 138 902 126 914 q 151 874 151 890 l 151 405 q 242 184 151 277 q 463 93 334 93 q 683 184 591 93 q 775 405 775 277 l 775 874 q 787 902 775 890 q 816 914 800 914 q 844 902 832 914 q 857 874 857 890 l 857 405 z "},"V":{"ha":773,"x_min":23,"x_max":773,"o":"m 773 874 q 771 859 773 865 l 437 44 q 398 12 424 12 q 359 44 372 12 l 26 859 q 23 874 23 864 q 35 902 23 890 q 62 914 46 914 q 102 889 92 914 l 398 160 l 694 889 q 734 914 705 914 q 762 902 750 914 q 773 874 773 890 z "},"W":{"ha":1120,"x_min":23,"x_max":1120,"o":"m 1120 874 q 1118 859 1120 865 l 785 44 q 745 12 771 12 q 706 44 719 12 l 572 373 l 437 44 q 398 12 424 12 q 359 44 372 12 l 26 859 q 23 874 23 864 q 35 902 23 890 q 62 914 47 914 q 102 889 92 914 l 398 160 l 528 479 l 373 859 q 370 874 370 864 q 382 902 370 890 q 410 914 395 914 q 449 889 439 914 l 572 588 l 694 889 q 734 914 705 914 q 761 902 749 914 q 773 874 773 890 q 771 859 773 865 l 616 479 l 745 160 l 1042 889 q 1081 914 1052 914 q 1108 902 1096 914 q 1120 874 1120 890 z "},"X":{"ha":830,"x_min":41,"x_max":812,"o":"m 812 52 q 800 24 812 36 q 772 12 788 12 q 742 26 753 12 l 426 401 l 111 26 q 80 12 100 12 q 41 52 41 12 q 50 77 41 66 l 374 463 l 50 848 q 41 874 41 859 q 80 914 41 914 q 111 901 100 914 l 426 524 l 742 901 q 772 914 753 914 q 800 902 788 914 q 812 874 812 890 q 802 847 812 860 l 479 463 l 802 79 q 812 52 812 65 z "},"Y":{"ha":795,"x_min":23,"x_max":795,"o":"m 795 874 q 785 847 795 860 l 449 449 l 449 52 q 437 24 449 36 q 408 12 425 12 q 380 24 393 12 q 368 52 368 36 l 368 450 l 33 848 q 23 874 23 859 q 62 914 23 914 q 94 901 82 914 l 408 524 l 724 901 q 755 914 736 914 q 783 902 771 914 q 795 874 795 890 z "},"Z":{"ha":830,"x_min":41,"x_max":812,"o":"m 812 52 q 800 24 812 36 q 772 12 788 12 l 80 12 q 41 52 41 12 q 50 77 41 66 l 685 833 l 81 833 q 53 846 65 833 q 41 874 41 858 q 53 902 41 890 q 81 914 65 914 l 772 914 q 800 902 788 914 q 812 874 812 890 q 798 842 812 859 l 168 93 l 772 93 q 800 81 788 93 q 812 52 812 68 z "},"[":{"ha":440,"x_min":98,"x_max":365,"o":"m 365 -62 q 353 -91 365 -79 q 324 -103 340 -103 l 139 -103 q 111 -91 123 -103 q 98 -62 98 -79 l 98 989 q 111 1018 98 1006 q 139 1030 123 1030 l 324 1030 q 353 1018 340 1030 q 365 989 365 1006 q 353 961 365 973 q 324 949 340 949 l 180 949 l 180 -22 l 324 -22 q 353 -34 340 -22 q 365 -62 365 -46 z "},"\\":{"ha":359,"x_min":41,"x_max":341,"o":"m 341 -51 q 329 -79 341 -67 q 301 -92 317 -92 q 262 -59 269 -92 l 41 970 q 41 975 41 973 q 41 978 41 977 q 53 1006 41 994 q 81 1019 65 1019 q 120 986 113 1019 l 340 -43 q 341 -47 341 -46 q 341 -51 341 -50 z "},"]":{"ha":440,"x_min":98,"x_max":365,"o":"m 365 -62 q 353 -91 365 -79 q 324 -103 340 -103 l 139 -103 q 111 -91 123 -103 q 98 -62 98 -79 q 111 -34 98 -46 q 139 -22 123 -22 l 283 -22 l 283 949 l 139 949 q 111 961 123 949 q 98 989 98 973 q 111 1018 98 1006 q 139 1030 123 1030 l 324 1030 q 353 1018 340 1030 q 365 989 365 1006 l 365 -62 z "},"^":{"ha":650,"x_min":98,"x_max":575,"o":"m 575 283 q 534 243 575 243 q 498 269 511 243 l 337 559 l 176 269 q 139 243 162 243 q 98 283 98 243 q 102 298 98 293 l 295 647 q 337 683 315 683 q 378 647 359 683 l 572 298 q 575 283 575 293 z "},"_":{"ha":614,"x_min":-39,"x_max":677,"o":"m 677 52 q 665 24 677 36 q 637 12 653 12 l 0 12 q -27 24 -15 12 q -39 52 -39 36 q -27 81 -39 68 q 0 93 -15 93 l 637 93 q 665 81 653 93 q 677 52 677 68 z "},"`":{"ha":357,"x_min":98,"x_max":282,"o":"m 282 1037 q 243 996 282 996 q 208 1015 222 996 l 104 1168 q 98 1189 98 1176 q 138 1229 98 1229 q 172 1211 160 1229 l 277 1058 q 282 1037 282 1049 z "},"a":{"ha":874,"x_min":41,"x_max":827,"o":"m 827 52 q 815 24 827 36 q 787 12 803 12 q 759 24 771 12 q 747 52 747 36 l 747 185 q 434 12 618 12 q 156 127 273 12 q 41 405 41 243 q 156 683 41 566 q 434 799 272 799 q 747 625 618 799 l 747 758 q 759 787 747 774 q 787 799 771 799 q 815 787 803 799 q 827 758 827 774 l 827 52 m 747 405 q 654 625 747 534 q 434 718 562 718 q 214 625 306 718 q 121 405 121 534 q 214 184 121 277 q 434 93 306 93 q 654 184 562 93 q 747 405 747 277 z "},"b":{"ha":874,"x_min":69,"x_max":857,"o":"m 857 405 q 741 127 857 243 q 463 12 625 12 q 151 185 279 12 l 151 52 q 138 24 151 36 q 110 12 126 12 q 81 24 94 12 q 69 52 69 36 l 69 874 q 81 902 69 890 q 110 914 94 914 q 138 902 126 914 q 151 874 151 890 l 151 625 q 463 799 279 799 q 741 683 625 799 q 857 405 857 567 m 775 405 q 683 625 775 534 q 463 718 591 718 q 242 625 334 718 q 151 405 151 534 q 242 184 151 277 q 463 93 334 93 q 683 184 591 93 q 775 405 775 277 z "},"c":{"ha":771,"x_min":41,"x_max":724,"o":"m 724 655 q 712 627 724 639 q 684 614 701 614 q 649 629 668 614 q 635 643 642 637 q 621 656 628 650 q 434 718 547 718 q 214 625 306 718 q 121 405 121 534 q 214 184 121 277 q 434 93 306 93 q 621 154 547 93 q 649 180 635 167 q 684 197 668 197 q 712 184 701 197 q 724 155 724 172 q 669 90 724 127 q 434 12 551 12 q 156 127 273 12 q 41 405 41 243 q 156 683 41 566 q 434 799 272 799 q 669 720 551 799 q 724 655 724 683 z "},"d":{"ha":874,"x_min":41,"x_max":827,"o":"m 827 52 q 815 24 827 36 q 787 12 803 12 q 759 24 771 12 q 747 52 747 36 l 747 185 q 434 12 618 12 q 156 127 273 12 q 41 405 41 243 q 156 683 41 566 q 434 799 272 799 q 747 625 618 799 l 747 874 q 759 902 747 890 q 787 914 771 914 q 815 902 803 914 q 827 874 827 890 l 827 52 m 747 405 q 654 625 747 534 q 434 718 562 718 q 214 625 306 718 q 121 405 121 534 q 214 184 121 277 q 434 93 306 93 q 654 184 562 93 q 747 405 747 277 z "},"e":{"ha":771,"x_min":41,"x_max":724,"o":"m 724 655 q 713 626 724 637 l 244 157 q 434 93 337 93 q 621 154 547 93 q 649 180 635 167 q 684 197 668 197 q 712 184 701 197 q 724 155 724 172 q 669 90 724 127 q 434 12 551 12 q 157 127 273 12 q 41 405 41 244 q 157 682 41 566 q 434 799 273 799 q 669 720 548 799 q 724 655 724 683 m 631 647 q 434 718 538 718 q 213 626 304 718 q 121 405 121 534 q 193 210 121 300 l 631 647 z "},"f":{"ha":515,"x_min":23,"x_max":527,"o":"m 527 874 q 515 846 527 858 q 486 833 503 833 l 272 833 l 272 567 l 399 567 q 428 555 416 567 q 440 527 440 543 q 428 498 440 511 q 399 486 416 486 l 272 486 l 272 52 q 260 24 272 36 q 231 12 248 12 q 203 24 215 12 q 191 52 191 36 l 191 486 l 64 486 q 35 498 47 486 q 23 527 23 511 q 35 555 23 543 q 64 567 47 567 l 191 567 l 191 874 q 203 902 191 890 q 231 914 215 914 l 486 914 q 515 902 503 914 q 527 874 527 890 z "},"g":{"ha":874,"x_min":41,"x_max":827,"o":"m 827 -178 q 815 -207 827 -195 q 787 -219 803 -219 l 313 -219 q 284 -207 296 -219 q 272 -178 272 -195 q 284 -150 272 -162 q 313 -138 296 -138 l 747 -138 l 747 185 q 434 12 618 12 q 156 127 273 12 q 41 405 41 243 q 156 683 41 566 q 434 799 272 799 q 747 625 618 799 l 747 758 q 759 787 747 774 q 787 799 771 799 q 815 787 803 799 q 827 758 827 774 l 827 -178 m 747 405 q 654 625 747 534 q 434 718 562 718 q 214 625 306 718 q 121 405 121 534 q 214 184 121 277 q 434 93 306 93 q 654 184 562 93 q 747 405 747 277 z "},"h":{"ha":903,"x_min":69,"x_max":857,"o":"m 857 52 q 844 24 857 36 q 816 12 832 12 q 787 24 800 12 q 775 52 775 36 l 775 405 q 683 625 775 534 q 463 718 591 718 q 242 625 334 718 q 151 405 151 534 l 151 52 q 138 24 151 36 q 110 12 126 12 q 81 24 94 12 q 69 52 69 36 l 69 874 q 81 902 69 890 q 110 914 94 914 q 138 902 126 914 q 151 874 151 890 l 151 626 q 473 799 285 799 q 744 681 632 799 q 857 405 857 564 l 857 52 z "},"i":{"ha":197,"x_min":69,"x_max":151,"o":"m 151 52 q 138 24 151 36 q 110 12 126 12 q 81 24 94 12 q 69 52 69 36 l 69 758 q 81 787 69 774 q 110 799 94 799 q 138 787 126 799 q 151 758 151 774 l 151 52 z "},"j":{"ha":197,"x_min":69,"x_max":151,"o":"m 151 -178 q 138 -207 151 -195 q 110 -219 126 -219 q 81 -207 94 -219 q 69 -178 69 -195 l 69 758 q 81 787 69 774 q 110 799 94 799 q 138 787 126 799 q 151 758 151 774 l 151 -178 z "},"k":{"ha":688,"x_min":69,"x_max":670,"o":"m 670 52 q 631 12 670 12 q 602 23 614 12 l 278 347 l 151 220 l 151 52 q 138 24 151 36 q 110 12 126 12 q 81 24 94 12 q 69 52 69 36 l 69 874 q 81 902 69 890 q 110 914 94 914 q 138 902 126 914 q 151 874 151 890 l 151 336 l 602 787 q 631 799 614 799 q 670 758 670 799 q 660 729 670 740 l 336 405 l 660 81 q 670 52 670 71 z "},"l":{"ha":197,"x_min":69,"x_max":151,"o":"m 151 52 q 138 24 151 36 q 110 12 126 12 q 81 24 94 12 q 69 52 69 36 l 69 874 q 81 902 69 890 q 110 914 94 914 q 138 902 126 914 q 151 874 151 890 l 151 52 z "},"m":{"ha":1192,"x_min":69,"x_max":1146,"o":"m 1146 52 q 1134 24 1146 36 q 1105 12 1122 12 q 1077 24 1089 12 q 1065 52 1065 36 l 1065 509 q 1003 656 1065 594 q 857 718 941 718 q 710 656 772 718 q 648 509 648 594 l 648 52 q 636 24 648 36 q 608 12 624 12 q 579 24 591 12 q 567 52 567 36 l 567 509 q 505 656 567 594 q 359 718 444 718 q 212 656 274 718 q 151 509 151 594 l 151 52 q 138 24 151 36 q 110 12 126 12 q 81 24 94 12 q 69 52 69 36 l 69 758 q 81 787 69 774 q 110 799 94 799 q 149 760 144 799 q 150 742 150 758 q 151 698 151 727 q 359 799 245 799 q 608 621 527 799 q 857 799 688 799 q 1061 713 976 799 q 1146 509 1146 629 l 1146 52 z "},"n":{"ha":903,"x_min":69,"x_max":857,"o":"m 857 52 q 844 24 857 36 q 816 12 832 12 q 787 24 800 12 q 775 52 775 36 l 775 405 q 683 625 775 534 q 463 718 591 718 q 242 625 334 718 q 151 405 151 534 l 151 52 q 138 24 151 36 q 110 12 126 12 q 81 24 94 12 q 69 52 69 36 l 69 758 q 81 787 69 774 q 110 799 94 799 q 138 787 126 799 q 151 758 151 774 l 151 626 q 473 799 285 799 q 744 681 632 799 q 857 405 857 564 l 857 52 z "},"o":{"ha":845,"x_min":41,"x_max":827,"o":"m 827 405 q 711 127 827 243 q 434 12 596 12 q 156 127 273 12 q 41 405 41 243 q 156 683 41 566 q 434 799 272 799 q 711 683 596 799 q 827 405 827 567 m 747 405 q 654 625 747 534 q 434 718 562 718 q 214 625 306 718 q 121 405 121 534 q 214 184 121 277 q 434 93 306 93 q 654 184 562 93 q 747 405 747 277 z "},"p":{"ha":874,"x_min":69,"x_max":857,"o":"m 857 405 q 741 127 857 243 q 463 12 625 12 q 151 185 279 12 l 151 -178 q 138 -207 151 -195 q 110 -219 126 -219 q 81 -207 94 -219 q 69 -178 69 -195 l 69 758 q 81 787 69 774 q 110 799 94 799 q 138 787 126 799 q 151 758 151 774 l 151 625 q 463 799 279 799 q 741 683 625 799 q 857 405 857 567 m 775 405 q 683 625 775 534 q 463 718 591 718 q 242 625 334 718 q 151 405 151 534 q 242 184 151 277 q 463 93 334 93 q 683 184 591 93 q 775 405 775 277 z "},"q":{"ha":874,"x_min":41,"x_max":827,"o":"m 827 -178 q 815 -207 827 -195 q 787 -219 803 -219 q 759 -207 771 -219 q 747 -178 747 -195 l 747 185 q 434 12 618 12 q 156 127 273 12 q 41 405 41 243 q 156 683 41 566 q 434 799 272 799 q 747 625 618 799 l 747 758 q 759 787 747 774 q 787 799 771 799 q 815 787 803 799 q 827 758 827 774 l 827 -178 m 747 405 q 654 625 747 534 q 434 718 562 718 q 214 625 306 718 q 121 405 121 534 q 214 184 121 277 q 434 93 306 93 q 654 184 562 93 q 747 405 747 277 z "},"r":{"ha":521,"x_min":69,"x_max":503,"o":"m 503 758 q 491 730 503 742 q 463 718 479 718 q 242 625 334 718 q 151 405 151 534 l 151 52 q 138 24 151 36 q 110 12 126 12 q 81 24 94 12 q 69 52 69 36 l 69 758 q 81 787 69 774 q 110 799 94 799 q 138 787 126 799 q 151 758 151 774 l 151 626 q 285 753 218 713 q 463 799 361 799 q 491 787 479 799 q 503 758 503 774 z "},"s":{"ha":491,"x_min":41,"x_max":473,"o":"m 473 229 q 410 76 473 140 q 257 12 345 12 q 148 39 200 12 q 69 119 93 69 q 64 141 64 134 q 76 168 64 156 q 103 180 88 180 q 161 136 118 180 q 257 93 203 93 q 353 133 313 93 q 393 229 393 174 q 353 325 393 285 q 257 365 313 365 q 104 428 168 365 q 41 581 41 492 q 104 734 41 670 q 257 799 168 799 q 367 769 313 799 q 444 691 421 739 q 450 670 450 680 q 438 642 450 654 q 410 629 426 629 q 353 673 395 629 q 257 718 313 718 q 161 677 201 718 q 121 581 121 637 q 161 486 121 526 q 257 446 201 446 q 410 382 346 446 q 473 229 473 318 z "},"t":{"ha":515,"x_min":23,"x_max":527,"o":"m 527 52 q 515 24 527 36 q 486 12 503 12 l 231 12 q 203 24 215 12 q 191 52 191 36 l 191 718 l 64 718 q 35 730 47 718 q 23 758 23 742 q 35 787 23 774 q 64 799 47 799 l 191 799 l 191 874 q 203 902 191 890 q 231 914 215 914 q 260 902 248 914 q 272 874 272 890 l 272 799 l 399 799 q 428 787 416 799 q 440 758 440 774 q 428 730 440 742 q 399 718 416 718 l 272 718 l 272 93 l 486 93 q 515 81 503 93 q 527 52 527 68 z "},"u":{"ha":903,"x_min":69,"x_max":857,"o":"m 857 52 q 844 24 857 36 q 816 12 832 12 q 787 24 800 12 q 775 52 775 36 l 775 184 q 452 12 641 12 q 181 129 294 12 q 69 405 69 247 l 69 758 q 81 787 69 774 q 110 799 94 799 q 138 787 126 799 q 151 758 151 774 l 151 405 q 242 184 151 277 q 463 93 334 93 q 683 184 591 93 q 775 405 775 277 l 775 758 q 787 787 775 774 q 816 799 800 799 q 844 787 832 799 q 857 758 857 774 l 857 52 z "},"v":{"ha":732,"x_min":23,"x_max":732,"o":"m 732 758 q 728 742 732 750 l 419 46 q 417 40 418 43 q 414 33 416 37 q 377 12 406 12 q 340 33 349 12 q 338 38 340 35 q 336 46 337 41 l 26 742 q 23 758 23 751 q 35 787 23 774 q 64 799 47 799 q 100 774 90 799 l 377 154 l 654 774 q 691 799 665 799 q 720 787 707 799 q 732 758 732 774 z "},"w":{"ha":1079,"x_min":23,"x_max":1079,"o":"m 1079 758 q 1075 742 1079 750 l 766 46 q 764 40 766 43 q 762 33 763 37 q 724 12 753 12 q 688 33 696 12 q 686 38 687 35 q 683 46 684 41 l 551 344 l 419 46 q 417 40 418 43 q 414 33 416 37 q 377 12 406 12 q 340 33 349 12 q 338 38 340 35 q 336 46 337 41 l 26 742 q 23 758 23 751 q 35 787 23 774 q 64 799 47 799 q 100 774 90 799 l 377 155 l 507 444 l 374 742 q 370 758 370 751 q 382 787 370 774 q 411 799 395 799 q 448 774 437 799 l 551 543 l 654 774 q 691 799 665 799 q 720 787 707 799 q 732 758 732 774 q 728 742 732 750 l 595 444 l 724 155 l 1001 774 q 1038 799 1012 799 q 1067 787 1055 799 q 1079 758 1079 774 z "},"x":{"ha":729,"x_min":41,"x_max":712,"o":"m 712 52 q 700 24 712 36 q 671 12 688 12 q 641 26 653 12 l 376 342 l 111 26 q 80 12 100 12 q 41 52 41 12 q 50 77 41 66 l 324 405 l 50 732 q 41 758 41 743 q 80 799 41 799 q 111 785 100 799 l 376 467 l 641 785 q 671 799 653 799 q 700 787 688 799 q 712 758 712 774 q 701 732 712 743 l 428 405 l 701 79 q 712 52 712 66 z "},"y":{"ha":903,"x_min":69,"x_max":857,"o":"m 857 -178 q 844 -207 857 -195 q 816 -219 832 -219 l 341 -219 q 313 -207 326 -219 q 301 -178 301 -195 q 313 -150 301 -162 q 341 -138 326 -138 l 775 -138 l 775 184 q 452 12 641 12 q 181 129 294 12 q 69 405 69 247 l 69 758 q 81 787 69 774 q 110 799 94 799 q 138 787 126 799 q 151 758 151 774 l 151 405 q 242 184 151 277 q 463 93 334 93 q 683 184 591 93 q 775 405 775 277 l 775 758 q 787 787 775 774 q 816 799 800 799 q 844 787 832 799 q 857 758 857 774 l 857 -178 z "},"z":{"ha":729,"x_min":41,"x_max":712,"o":"m 712 52 q 700 24 712 36 q 671 12 688 12 l 80 12 q 41 52 41 12 q 50 77 41 66 l 585 718 l 81 718 q 53 730 65 718 q 41 758 41 742 q 53 787 41 774 q 81 799 65 799 l 671 799 q 700 787 688 799 q 712 758 712 774 q 698 727 712 743 l 168 93 l 671 93 q 700 81 688 93 q 712 52 712 68 z "},"{":{"ha":625,"x_min":98,"x_max":550,"o":"m 550 -62 q 538 -91 550 -79 q 509 -103 526 -103 l 324 -103 q 296 -91 308 -103 q 283 -62 283 -79 l 283 422 l 139 422 q 111 435 123 422 q 98 463 98 447 q 111 491 98 479 q 139 503 123 503 l 283 503 l 283 989 q 296 1018 283 1006 q 324 1030 308 1030 l 509 1030 q 538 1018 526 1030 q 550 989 550 1006 q 538 961 550 973 q 509 949 526 949 l 365 949 l 365 515 q 324 475 365 475 l 324 452 q 365 411 365 452 l 365 -22 l 509 -22 q 538 -34 526 -22 q 550 -62 550 -46 z "},"|":{"ha":254,"x_min":98,"x_max":180,"o":"m 180 -62 q 168 -91 180 -79 q 139 -103 155 -103 q 111 -91 123 -103 q 98 -62 98 -79 l 98 989 q 111 1018 98 1006 q 139 1030 123 1030 q 168 1018 155 1030 q 180 989 180 1006 l 180 -62 z "},"}":{"ha":625,"x_min":98,"x_max":550,"o":"m 550 463 q 538 435 550 447 q 509 422 526 422 l 365 422 l 365 -62 q 353 -91 365 -79 q 324 -103 340 -103 l 139 -103 q 111 -91 123 -103 q 98 -62 98 -79 q 111 -34 98 -46 q 139 -22 123 -22 l 283 -22 l 283 411 q 324 452 283 452 l 324 475 q 283 515 283 475 l 283 949 l 139 949 q 111 961 123 949 q 98 989 98 973 q 111 1018 98 1006 q 139 1030 123 1030 l 324 1030 q 353 1018 340 1030 q 365 989 365 1006 l 365 503 l 509 503 q 538 491 526 503 q 550 463 550 479 z "},"~":{"ha":706,"x_min":98,"x_max":631,"o":"m 631 463 q 557 408 631 437 q 457 382 490 382 q 368 422 424 382 q 272 463 312 463 q 175 433 235 463 q 103 403 115 403 q 98 410 98 403 l 98 463 q 172 517 98 488 q 272 544 239 544 q 361 503 306 544 q 457 463 417 463 q 554 493 493 463 q 626 523 615 523 q 631 516 631 523 l 631 463 z "},"‚":{"ha":323,"x_min":98,"x_max":248,"o":"m 248 64 q 242 41 248 51 l 172 -64 q 138 -82 161 -82 q 98 -41 98 -82 q 104 -18 98 -28 l 174 87 q 208 104 185 104 q 248 64 248 104 z "},"„":{"ha":543,"x_min":98,"x_max":467,"o":"m 467 64 q 462 41 467 51 l 393 -64 q 357 -82 380 -82 q 318 -41 318 -82 q 324 -18 318 -28 l 393 87 q 428 104 405 104 q 467 64 467 104 m 248 64 q 242 41 248 51 l 172 -64 q 138 -82 161 -82 q 98 -41 98 -82 q 104 -18 98 -28 l 174 87 q 208 104 185 104 q 248 64 248 104 z "},"…":{"ha":671,"x_min":98,"x_max":596,"o":"m 596 52 q 584 24 596 36 q 555 12 572 12 q 527 24 539 12 q 515 52 515 36 q 527 81 515 68 q 555 93 539 93 q 584 81 572 93 q 596 52 596 68 m 388 52 q 376 24 388 36 q 347 12 363 12 q 319 24 331 12 q 307 52 307 36 q 319 81 307 68 q 347 93 331 93 q 376 81 363 93 q 388 52 388 68 m 180 52 q 168 24 180 36 q 139 12 155 12 q 111 24 123 12 q 98 52 98 36 q 111 81 98 68 q 139 93 123 93 q 168 81 155 93 q 180 52 180 68 z "},"†":{"ha":590,"x_min":98,"x_max":515,"o":"m 515 642 q 503 614 515 626 q 475 602 491 602 l 347 602 l 347 -62 q 335 -91 347 -79 q 307 -103 323 -103 q 278 -91 290 -103 q 267 -62 267 -79 l 267 602 l 139 602 q 111 614 123 602 q 98 642 98 626 q 111 671 98 659 q 139 683 123 683 l 267 683 l 267 874 q 278 902 267 890 q 307 914 290 914 q 335 902 323 914 q 347 874 347 890 l 347 683 l 475 683 q 503 671 491 683 q 515 642 515 659 z "},"‡":{"ha":590,"x_min":98,"x_max":515,"o":"m 515 411 q 503 382 515 395 q 475 370 491 370 l 347 370 l 347 -62 q 335 -91 347 -79 q 307 -103 323 -103 q 278 -91 290 -103 q 267 -62 267 -79 l 267 370 l 139 370 q 111 382 123 370 q 98 411 98 395 q 111 439 98 427 q 139 452 123 452 l 267 452 l 267 602 l 139 602 q 111 614 123 602 q 98 642 98 626 q 111 671 98 659 q 139 683 123 683 l 267 683 l 267 874 q 278 902 267 890 q 307 914 290 914 q 335 902 323 914 q 347 874 347 890 l 347 683 l 475 683 q 503 671 491 683 q 515 642 515 659 q 503 614 515 626 q 475 602 491 602 l 347 602 l 347 452 l 475 452 q 503 439 491 452 q 515 411 515 427 z "},"ˆ":{"ha":511,"x_min":98,"x_max":436,"o":"m 436 1048 q 396 1007 436 1007 q 357 1034 376 1007 l 267 1162 l 177 1034 q 139 1007 159 1007 q 98 1048 98 1007 q 100 1061 98 1058 l 224 1236 q 267 1273 251 1273 q 310 1236 283 1273 l 434 1061 q 436 1048 436 1058 z "},"‰":{"ha":1312,"x_min":98,"x_max":1237,"o":"m 1237 243 q 1168 79 1237 148 q 1006 12 1101 12 q 814 113 894 12 q 624 12 736 12 q 456 89 521 12 q 396 269 396 163 q 396 290 396 281 q 397 306 396 300 l 169 33 q 138 20 157 20 q 98 60 98 20 q 108 85 98 74 l 431 471 q 330 452 362 452 q 166 519 234 452 q 98 683 98 587 q 166 846 98 778 q 330 914 235 914 q 498 836 433 914 q 558 657 558 763 q 558 636 558 646 q 557 621 557 627 l 785 892 q 816 906 796 906 q 855 866 855 906 q 846 840 855 851 l 522 455 q 624 475 591 475 q 814 374 735 475 q 1006 475 895 475 q 1168 406 1100 475 q 1237 243 1237 338 m 1156 243 q 1112 349 1156 304 q 1006 393 1067 393 q 900 349 945 393 q 855 243 855 304 q 900 137 855 182 q 1006 93 945 93 q 1112 137 1067 93 q 1156 243 1156 182 m 480 683 q 435 789 480 744 q 330 833 391 833 q 224 789 269 833 q 180 683 180 743 q 224 576 180 622 q 330 532 269 532 q 435 576 391 532 q 480 683 480 621 m 774 243 q 730 349 774 304 q 624 393 685 393 q 517 349 562 393 q 473 243 473 304 q 517 137 473 182 q 624 93 563 93 q 730 137 684 93 q 774 243 774 182 z "},"‹":{"ha":614,"x_min":98,"x_max":538,"o":"m 538 265 q 498 224 538 224 q 483 228 488 224 l 134 421 q 98 463 98 441 q 134 505 98 485 l 483 698 q 498 701 488 701 q 538 661 538 701 q 513 624 538 637 l 222 463 l 513 302 q 538 265 538 288 z "},"Œ":{"ha":1407,"x_min":41,"x_max":1360,"o":"m 1360 52 q 1348 24 1360 36 q 1320 12 1335 12 l 903 12 q 874 24 886 12 q 862 52 862 36 l 862 203 q 492 12 707 12 q 174 144 307 12 q 41 463 41 277 q 174 781 41 648 q 492 914 307 914 q 862 722 707 914 l 862 874 q 874 902 862 890 q 903 914 886 914 l 1320 914 q 1348 902 1335 914 q 1360 874 1360 890 q 1348 846 1360 858 q 1320 833 1335 833 l 943 833 l 943 503 l 1204 503 q 1232 491 1220 503 q 1244 463 1244 479 q 1232 435 1244 447 q 1204 422 1220 422 l 943 422 l 943 93 l 1320 93 q 1348 81 1335 93 q 1360 52 1360 68 m 862 463 q 753 724 862 616 q 492 833 644 833 q 230 724 338 833 q 121 463 121 615 q 230 201 121 310 q 492 93 338 93 q 753 201 645 93 q 862 463 862 310 z "},"‘":{"ha":323,"x_min":98,"x_max":248,"o":"m 248 768 q 208 727 248 727 q 174 745 184 727 l 104 852 q 98 874 98 861 q 138 914 98 914 q 172 897 161 914 l 242 791 q 248 768 248 781 z "},"’":{"ha":323,"x_min":98,"x_max":248,"o":"m 248 874 q 242 852 248 861 l 172 745 q 138 727 161 727 q 98 768 98 727 q 104 791 98 781 l 174 897 q 208 914 184 914 q 248 874 248 914 z "},"“":{"ha":543,"x_min":98,"x_max":467,"o":"m 467 768 q 428 727 467 727 q 393 745 404 727 l 324 852 q 318 874 318 861 q 357 914 318 914 q 393 897 380 914 l 462 791 q 467 768 467 781 m 248 768 q 208 727 248 727 q 174 745 184 727 l 104 852 q 98 874 98 861 q 138 914 98 914 q 172 897 161 914 l 242 791 q 248 768 248 781 z "},"”":{"ha":543,"x_min":98,"x_max":467,"o":"m 467 874 q 462 852 467 861 l 393 745 q 357 727 380 727 q 318 768 318 727 q 324 791 318 781 l 393 897 q 428 914 404 914 q 467 874 467 914 m 248 874 q 242 852 248 861 l 172 745 q 138 727 161 727 q 98 768 98 727 q 104 791 98 781 l 174 897 q 208 914 184 914 q 248 874 248 914 z "},"•":{"ha":752,"x_min":98,"x_max":677,"o":"m 677 463 q 592 258 677 345 q 388 174 507 174 q 183 258 269 174 q 98 463 98 345 q 183 667 98 582 q 388 752 269 752 q 592 667 507 752 q 677 463 677 582 z "},"–":{"ha":498,"x_min":98,"x_max":422,"o":"m 422 463 q 410 435 422 447 q 382 422 398 422 l 139 422 q 111 435 123 422 q 98 463 98 447 q 111 491 98 479 q 139 503 123 503 l 382 503 q 410 491 398 503 q 422 463 422 479 z "},"—":{"ha":729,"x_min":98,"x_max":654,"o":"m 654 463 q 642 435 654 447 q 614 422 629 422 l 139 422 q 111 435 123 422 q 98 463 98 447 q 111 491 98 479 q 139 503 123 503 l 614 503 q 642 491 629 503 q 654 463 654 479 z "},"˜":{"ha":567,"x_min":97,"x_max":492,"o":"m 492 1076 q 439 1025 492 1055 q 365 996 387 996 q 300 1036 341 996 q 226 1076 259 1076 q 151 1046 197 1076 q 100 1016 106 1016 q 97 1020 97 1016 l 97 1024 q 98 1028 98 1028 l 98 1076 q 151 1127 98 1097 q 226 1158 202 1158 q 290 1117 250 1158 q 365 1076 331 1076 q 439 1106 395 1076 q 492 1137 484 1137 l 492 1076 z "},"™":{"ha":775,"x_min":98,"x_max":701,"o":"m 701 581 q 676 555 701 555 q 650 581 650 555 l 650 803 l 549 649 q 532 637 541 637 q 514 653 524 637 l 414 803 l 414 581 q 389 555 414 555 q 363 581 363 555 l 363 865 l 282 865 l 282 581 q 257 555 282 555 q 231 581 231 555 l 231 865 l 124 865 q 98 889 98 865 q 124 914 98 914 l 389 914 q 411 903 403 914 l 532 716 l 654 903 q 676 914 662 914 q 701 889 701 914 l 701 581 z "},"›":{"ha":614,"x_min":98,"x_max":538,"o":"m 538 463 q 503 421 538 441 l 154 228 q 139 224 147 224 q 98 265 98 224 q 124 302 98 288 l 414 463 l 124 624 q 98 661 98 637 q 139 701 98 701 q 154 698 147 701 l 503 505 q 538 463 538 485 z "},"œ":{"ha":1477,"x_min":41,"x_max":1430,"o":"m 1430 655 q 1419 626 1430 637 l 950 157 q 1140 93 1043 93 q 1326 154 1252 93 q 1341 167 1334 161 q 1356 180 1348 174 q 1390 197 1375 197 q 1418 184 1407 197 q 1430 155 1430 172 q 1375 90 1430 128 q 1140 12 1258 12 q 934 72 1029 12 q 787 231 843 130 q 640 72 730 130 q 434 12 545 12 q 156 127 273 12 q 41 405 41 243 q 156 683 41 566 q 434 799 272 799 q 640 739 546 799 q 787 580 730 681 q 934 739 843 680 q 1140 799 1029 799 q 1375 720 1256 799 q 1430 655 1430 682 m 1337 647 q 1140 718 1244 718 q 919 626 1010 718 q 827 405 827 534 q 899 210 827 300 l 1337 647 m 747 405 q 654 625 747 534 q 434 718 562 718 q 214 625 306 718 q 121 405 121 534 q 214 184 121 277 q 434 93 306 93 q 654 184 562 93 q 747 405 747 277 z "},"Ÿ":{"ha":795,"x_min":23,"x_max":795,"o":"m 795 874 q 785 847 795 860 l 449 449 l 449 52 q 437 24 449 36 q 408 12 425 12 q 380 24 393 12 q 368 52 368 36 l 368 450 l 33 848 q 23 874 23 859 q 62 914 23 914 q 94 901 82 914 l 408 524 l 724 901 q 755 914 736 914 q 783 902 771 914 q 795 874 795 890 m 553 1036 q 541 1008 553 1020 q 513 996 529 996 q 484 1008 496 996 q 472 1036 472 1020 q 484 1064 472 1052 q 513 1076 496 1076 q 541 1064 529 1076 q 553 1036 553 1052 m 345 1036 q 333 1008 345 1020 q 304 996 321 996 q 276 1008 288 996 q 264 1036 264 1020 q 276 1064 264 1052 q 304 1076 288 1076 q 333 1064 321 1076 q 345 1036 345 1052 z "}," ":{"ha":498,"x_min":0,"x_max":0,"o":""},"¡":{"ha":254,"x_min":98,"x_max":180,"o":"m 180 758 q 168 730 180 742 q 139 718 155 718 q 111 730 123 718 q 98 758 98 742 q 111 787 98 774 q 139 799 123 799 q 168 787 155 799 q 180 758 180 774 m 180 -62 q 168 -91 180 -79 q 139 -103 155 -103 q 111 -91 123 -103 q 98 -62 98 -79 l 98 538 q 111 566 98 554 q 139 578 123 578 q 168 566 155 578 q 180 538 180 554 l 180 -62 z "},"¢":{"ha":858,"x_min":98,"x_max":783,"o":"m 783 713 q 770 685 783 696 q 742 673 758 673 q 707 688 726 673 q 693 701 700 694 q 678 714 686 707 q 562 768 636 749 l 431 156 q 464 152 449 153 q 492 151 479 151 q 678 212 606 151 q 693 225 686 219 q 707 239 700 232 q 742 254 727 254 q 770 242 758 254 q 781 213 781 229 q 727 148 781 186 q 492 69 610 69 q 413 77 460 69 l 385 -59 q 345 -92 377 -92 q 317 -79 329 -92 q 304 -51 304 -67 q 305 -48 304 -50 q 306 -43 305 -46 l 336 102 q 163 249 229 151 q 98 463 98 346 q 216 742 98 626 q 498 857 333 854 l 526 986 q 565 1019 532 1019 q 593 1006 581 1019 q 606 978 606 994 q 595 912 606 951 q 587 880 591 896 q 578 847 583 863 q 699 798 637 830 q 783 713 783 751 m 480 775 q 267 675 354 764 q 180 463 180 587 q 354 183 180 282 l 480 775 z "},"£":{"ha":793,"x_min":98,"x_max":718,"o":"m 718 52 q 705 24 718 36 q 677 12 693 12 l 307 12 q 278 24 290 12 q 267 52 267 36 l 267 486 l 139 486 q 111 498 123 486 q 98 527 98 511 q 111 555 98 543 q 139 567 123 567 l 267 567 l 267 874 q 278 902 267 890 q 307 914 290 914 l 562 914 q 590 902 578 914 q 602 874 602 890 q 590 846 602 858 q 562 833 578 833 l 347 833 l 347 567 l 475 567 q 503 555 491 567 q 515 527 515 543 q 503 498 515 511 q 475 486 491 486 l 347 486 l 347 93 l 677 93 q 705 81 693 93 q 718 52 718 68 z "},"¤":{"ha":845,"x_min":80,"x_max":788,"o":"m 788 149 q 748 109 788 109 q 719 120 730 109 l 608 231 q 434 174 526 174 q 260 231 342 174 l 149 120 q 120 109 138 109 q 80 149 80 109 q 92 178 80 167 l 203 290 q 144 463 144 372 q 203 637 144 554 l 92 748 q 80 777 80 760 q 120 817 80 817 q 149 806 138 817 l 260 694 q 434 752 342 752 q 608 694 526 752 l 719 806 q 748 817 730 817 q 788 777 788 817 q 777 748 788 760 l 665 637 q 724 463 724 554 q 665 290 724 372 l 777 178 q 788 149 788 167 m 642 463 q 581 610 642 549 q 434 671 519 671 q 287 610 349 671 q 226 463 226 549 q 287 315 226 377 q 434 254 349 254 q 581 315 519 254 q 642 463 642 377 z "},"¥":{"ha":795,"x_min":23,"x_max":795,"o":"m 795 874 q 785 847 795 860 l 442 440 l 589 440 q 617 428 606 440 q 629 399 629 416 q 617 371 629 383 q 589 359 606 359 l 449 359 l 449 208 l 589 208 q 617 196 606 208 q 629 168 629 184 q 617 140 629 152 q 589 127 606 127 l 449 127 l 449 52 q 437 24 449 36 q 408 12 425 12 q 380 24 393 12 q 368 52 368 36 l 368 127 l 231 127 q 202 140 214 127 q 190 168 190 152 q 202 196 190 184 q 231 208 214 208 l 368 208 l 368 359 l 231 359 q 202 371 214 359 q 190 399 190 383 q 202 428 190 416 q 231 440 214 440 l 377 440 l 33 848 q 23 874 23 859 q 62 914 23 914 q 94 901 82 914 l 408 524 l 724 901 q 755 914 736 914 q 783 902 771 914 q 795 874 795 890 z "},"¨":{"ha":463,"x_min":98,"x_max":388,"o":"m 388 1036 q 376 1008 388 1020 q 347 996 363 996 q 319 1008 331 996 q 307 1036 307 1020 q 319 1064 307 1052 q 347 1076 331 1076 q 376 1064 363 1076 q 388 1036 388 1052 m 180 1036 q 168 1008 180 1020 q 139 996 155 996 q 111 1008 123 996 q 98 1036 98 1020 q 111 1064 98 1052 q 139 1076 123 1076 q 168 1064 155 1076 q 180 1036 180 1052 z "},"©":{"ha":1076,"x_min":98,"x_max":1001,"o":"m 1001 463 q 868 144 1001 277 q 550 12 735 12 q 231 144 364 12 q 98 463 98 277 q 231 781 98 648 q 550 914 364 914 q 868 781 735 914 q 1001 463 1001 648 m 920 463 q 810 724 920 614 q 550 833 701 833 q 289 724 397 833 q 180 463 180 614 q 289 202 180 311 q 550 93 398 93 q 810 202 701 93 q 920 463 920 311 m 732 321 q 720 290 732 307 q 644 239 695 259 q 550 220 593 220 q 378 292 450 220 q 307 463 307 363 q 378 634 307 562 q 550 706 450 706 q 644 686 593 706 q 720 635 695 667 q 732 606 732 619 q 692 566 732 566 q 639 595 682 566 q 550 625 595 625 q 435 577 484 625 q 388 463 388 530 q 435 349 388 396 q 550 301 483 301 q 637 330 594 301 q 692 360 682 360 q 732 321 732 360 z "},"«":{"ha":996,"x_min":98,"x_max":920,"o":"m 920 52 q 880 12 920 12 q 866 14 869 12 l 517 254 q 480 296 480 279 q 517 339 480 314 l 866 578 q 878 581 869 581 q 920 541 920 581 q 894 503 920 519 l 585 296 l 894 90 q 920 52 920 73 m 538 52 q 498 12 538 12 q 484 14 488 12 l 136 254 q 98 296 98 279 q 136 339 98 314 l 484 578 q 495 581 487 581 q 538 541 538 581 q 511 503 538 519 l 203 296 l 511 90 q 538 52 538 73 z "},"®":{"ha":1076,"x_min":98,"x_max":1001,"o":"m 1001 463 q 868 144 1001 277 q 550 12 735 12 q 231 144 364 12 q 98 463 98 277 q 231 781 98 648 q 550 914 364 914 q 868 781 735 914 q 1001 463 1001 648 m 920 463 q 810 724 920 614 q 550 833 701 833 q 289 724 397 833 q 180 463 180 614 q 289 202 180 311 q 550 93 398 93 q 810 202 701 93 q 920 463 920 311 m 748 231 q 715 200 748 200 q 693 208 701 200 l 537 366 l 416 366 l 416 231 q 385 200 416 200 q 352 231 352 200 l 352 727 l 568 727 q 695 673 642 727 q 748 547 748 621 q 621 374 748 428 l 739 254 q 748 231 748 245 m 684 547 q 650 628 684 594 q 568 662 616 662 l 416 662 l 416 431 l 568 431 q 650 465 616 431 q 684 547 684 499 z "},"°":{"ha":382,"x_min":98,"x_max":307,"o":"m 307 810 q 276 736 307 768 q 203 706 245 706 q 129 736 160 706 q 98 810 98 768 q 129 884 98 853 q 203 914 160 914 q 276 884 245 914 q 307 810 307 853 m 272 810 q 267 837 272 825 q 252 859 261 850 q 230 874 242 869 q 203 880 217 880 q 176 874 189 880 q 153 859 163 869 q 138 837 144 850 q 133 810 133 825 q 138 783 133 796 q 153 761 144 770 q 176 746 163 751 q 203 741 189 741 q 230 746 217 741 q 252 761 242 751 q 267 783 261 770 q 272 810 272 796 z "},"±":{"ha":614,"x_min":98,"x_max":538,"o":"m 538 463 q 526 435 538 447 q 498 422 514 422 l 359 422 l 359 283 q 347 255 359 267 q 318 243 334 243 q 290 255 302 243 q 278 283 278 267 l 278 422 l 139 422 q 111 435 123 422 q 98 463 98 447 q 111 491 98 479 q 139 503 123 503 l 278 503 l 278 642 q 290 671 278 659 q 318 683 302 683 q 347 671 334 683 q 359 642 359 659 l 359 503 l 498 503 q 526 491 514 503 q 538 463 538 479 m 538 52 q 526 24 538 36 q 498 12 514 12 l 139 12 q 111 24 123 12 q 98 52 98 36 q 111 81 98 68 q 139 93 123 93 l 498 93 q 526 81 514 93 q 538 52 538 68 z "},"´":{"ha":357,"x_min":98,"x_max":282,"o":"m 282 1189 q 277 1168 282 1177 l 172 1015 q 138 996 159 996 q 98 1037 98 996 q 104 1058 98 1050 l 208 1211 q 243 1229 221 1229 q 282 1189 282 1229 z "},"¶":{"ha":957,"x_min":98,"x_max":882,"o":"m 882 874 q 870 846 882 858 q 842 833 858 833 l 714 833 l 714 -62 q 702 -91 714 -79 q 673 -103 690 -103 q 645 -91 657 -103 q 633 -62 633 -79 l 633 833 l 494 833 l 494 -62 q 482 -91 494 -79 q 454 -103 470 -103 q 425 -91 437 -103 q 413 -62 413 -79 l 413 307 q 191 394 283 307 q 98 611 98 481 q 187 825 98 736 q 401 914 277 914 l 842 914 q 870 902 858 914 q 882 874 882 890 m 413 388 l 413 833 q 248 770 317 833 q 180 611 180 705 q 248 451 180 515 q 413 388 317 388 z "},"·":{"ha":254,"x_min":98,"x_max":180,"o":"m 180 463 q 168 435 180 447 q 139 422 155 422 q 111 435 123 422 q 98 463 98 447 q 111 491 98 479 q 139 503 123 503 q 168 491 155 503 q 180 463 180 479 z "},"»":{"ha":996,"x_min":98,"x_max":920,"o":"m 920 296 q 883 254 920 279 l 534 14 q 521 12 531 12 q 480 52 480 12 q 507 90 480 73 l 816 296 l 507 503 q 480 541 480 519 q 523 581 480 581 q 534 578 532 581 l 883 339 q 920 296 920 314 m 538 296 q 501 254 538 279 l 153 14 q 139 12 149 12 q 98 52 98 12 q 125 90 98 73 l 434 296 l 125 503 q 98 541 98 519 q 141 581 98 581 q 153 578 150 581 l 501 339 q 538 296 538 314 z "},"¿":{"ha":637,"x_min":98,"x_max":562,"o":"m 531 758 q 519 730 531 742 q 491 718 507 718 q 463 730 475 718 q 450 758 450 742 q 463 787 450 774 q 491 799 475 799 q 519 787 507 799 q 531 758 531 774 m 562 38 q 557 18 562 31 q 469 -69 532 -35 q 344 -103 406 -103 q 170 -31 243 -103 q 98 142 98 41 q 170 315 98 243 q 344 388 243 388 q 439 435 418 388 q 450 538 450 463 q 463 566 450 554 q 491 578 475 578 q 519 566 507 578 q 531 538 531 554 l 531 515 q 496 355 531 398 q 344 307 456 307 q 228 258 277 307 q 180 142 180 210 q 228 26 180 76 q 344 -22 277 -22 q 434 3 397 -22 q 483 52 450 14 q 523 79 506 79 q 551 66 539 79 q 562 38 562 54 z "},"À":{"ha":773,"x_min":23,"x_max":773,"o":"m 773 52 q 761 24 773 36 q 734 12 749 12 q 694 37 705 12 l 611 243 l 185 243 l 102 37 q 62 12 92 12 q 35 24 47 12 q 23 52 23 36 q 26 67 23 62 l 359 882 q 398 914 372 914 q 437 882 424 914 l 771 67 q 773 52 773 61 m 578 324 l 398 766 l 219 324 l 578 324 m 489 1037 q 450 996 489 996 q 415 1015 429 996 l 311 1168 q 305 1189 305 1176 q 345 1229 305 1229 q 379 1211 367 1229 l 484 1058 q 489 1037 489 1049 z "},"Á":{"ha":773,"x_min":23,"x_max":773,"o":"m 773 52 q 761 24 773 36 q 734 12 749 12 q 694 37 705 12 l 611 243 l 185 243 l 102 37 q 62 12 92 12 q 35 24 47 12 q 23 52 23 36 q 26 67 23 62 l 359 882 q 398 914 372 914 q 437 882 424 914 l 771 67 q 773 52 773 61 m 578 324 l 398 766 l 219 324 l 578 324 m 489 1189 q 484 1168 489 1177 l 379 1015 q 345 996 366 996 q 305 1037 305 996 q 311 1058 305 1050 l 415 1211 q 450 1229 428 1229 q 489 1189 489 1229 z "},"Â":{"ha":773,"x_min":23,"x_max":773,"o":"m 773 52 q 761 24 773 36 q 734 12 749 12 q 694 37 705 12 l 611 243 l 185 243 l 102 37 q 62 12 92 12 q 35 24 47 12 q 23 52 23 36 q 26 67 23 62 l 359 882 q 398 914 372 914 q 437 882 424 914 l 771 67 q 773 52 773 61 m 578 324 l 398 766 l 219 324 l 578 324 m 567 1048 q 527 1007 567 1007 q 488 1034 507 1007 l 398 1162 l 308 1034 q 270 1007 290 1007 q 229 1048 229 1007 q 231 1061 229 1058 l 355 1236 q 398 1273 382 1273 q 441 1236 414 1273 l 565 1061 q 567 1048 567 1058 z "},"Ã":{"ha":773,"x_min":23,"x_max":773,"o":"m 773 52 q 761 24 773 36 q 734 12 749 12 q 694 37 705 12 l 611 243 l 185 243 l 102 37 q 62 12 92 12 q 35 24 47 12 q 23 52 23 36 q 26 67 23 62 l 359 882 q 398 914 372 914 q 437 882 424 914 l 771 67 q 773 52 773 61 m 578 324 l 398 766 l 219 324 l 578 324 m 595 1076 q 543 1025 595 1055 q 468 996 490 996 q 403 1036 444 996 q 329 1076 362 1076 q 254 1046 300 1076 q 203 1016 209 1016 q 200 1020 200 1016 l 200 1024 q 201 1028 201 1028 l 201 1076 q 254 1127 201 1097 q 329 1158 305 1158 q 393 1117 353 1158 q 468 1076 434 1076 q 542 1106 498 1076 q 595 1137 587 1137 l 595 1076 z "},"Ä":{"ha":773,"x_min":23,"x_max":773,"o":"m 773 52 q 761 24 773 36 q 734 12 749 12 q 694 37 705 12 l 611 243 l 185 243 l 102 37 q 62 12 92 12 q 35 24 47 12 q 23 52 23 36 q 26 67 23 62 l 359 882 q 398 914 372 914 q 437 882 424 914 l 771 67 q 773 52 773 61 m 578 324 l 398 766 l 219 324 l 578 324 m 543 1036 q 531 1008 543 1020 q 503 996 519 996 q 474 1008 486 996 q 462 1036 462 1020 q 474 1064 462 1052 q 503 1076 486 1076 q 531 1064 519 1076 q 543 1036 543 1052 m 335 1036 q 323 1008 335 1020 q 294 996 311 996 q 266 1008 278 996 q 254 1036 254 1020 q 266 1064 254 1052 q 294 1076 278 1076 q 323 1064 311 1076 q 335 1036 335 1052 z "},"Å":{"ha":773,"x_min":23,"x_max":773,"o":"m 773 52 q 761 24 773 36 q 734 12 749 12 q 694 37 705 12 l 611 243 l 185 243 l 102 37 q 62 12 92 12 q 35 24 47 12 q 23 52 23 36 q 26 67 23 62 l 359 882 q 398 914 372 914 q 437 882 424 914 l 771 67 q 773 52 773 61 m 578 324 l 398 766 l 219 324 l 578 324 m 502 1099 q 471 1026 502 1057 q 398 996 441 996 q 324 1026 355 996 q 294 1099 294 1057 q 324 1173 294 1142 q 398 1204 355 1204 q 471 1173 441 1204 q 502 1099 502 1142 m 467 1099 q 462 1126 467 1114 q 447 1149 456 1139 q 425 1164 437 1158 q 398 1169 412 1169 q 371 1164 384 1169 q 349 1149 358 1158 q 334 1126 339 1139 q 328 1099 328 1114 q 334 1073 328 1085 q 349 1050 339 1060 q 371 1036 358 1041 q 398 1030 384 1030 q 425 1036 412 1030 q 447 1050 437 1041 q 462 1073 456 1060 q 467 1099 467 1085 z "},"Æ":{"ha":1237,"x_min":23,"x_max":1191,"o":"m 1191 52 q 1179 24 1191 36 q 1150 12 1166 12 l 734 12 q 694 37 705 12 l 611 243 l 185 243 l 102 37 q 62 12 92 12 q 35 24 47 12 q 23 52 23 36 q 26 67 23 62 l 359 882 q 398 914 372 914 q 437 882 424 914 l 693 256 l 693 874 q 705 902 693 890 q 734 914 718 914 l 1150 914 q 1179 902 1166 914 q 1191 874 1191 890 q 1179 846 1191 858 q 1150 833 1166 833 l 774 833 l 774 503 l 1035 503 q 1063 491 1051 503 q 1075 463 1075 479 q 1063 435 1075 447 q 1035 422 1051 422 l 774 422 l 774 93 l 1150 93 q 1179 81 1166 93 q 1191 52 1191 68 m 578 324 l 398 766 l 219 324 l 578 324 z "},"È":{"ha":729,"x_min":69,"x_max":683,"o":"m 683 52 q 671 24 683 36 q 642 12 659 12 l 110 12 q 81 24 94 12 q 69 52 69 36 l 69 874 q 81 902 69 890 q 110 914 94 914 l 642 914 q 671 902 659 914 q 683 874 683 890 q 671 846 683 858 q 642 833 659 833 l 151 833 l 151 503 l 527 503 q 555 491 543 503 q 567 463 567 479 q 555 435 567 447 q 527 422 543 422 l 151 422 l 151 93 l 642 93 q 671 81 659 93 q 683 52 683 68 m 467 1037 q 428 996 467 996 q 393 1015 408 996 l 290 1168 q 283 1189 283 1176 q 323 1229 283 1229 q 357 1211 345 1229 l 462 1058 q 467 1037 467 1049 z "},"É":{"ha":729,"x_min":69,"x_max":683,"o":"m 683 52 q 671 24 683 36 q 642 12 659 12 l 110 12 q 81 24 94 12 q 69 52 69 36 l 69 874 q 81 902 69 890 q 110 914 94 914 l 642 914 q 671 902 659 914 q 683 874 683 890 q 671 846 683 858 q 642 833 659 833 l 151 833 l 151 503 l 527 503 q 555 491 543 503 q 567 463 567 479 q 555 435 567 447 q 527 422 543 422 l 151 422 l 151 93 l 642 93 q 671 81 659 93 q 683 52 683 68 m 467 1189 q 462 1168 467 1177 l 357 1015 q 323 996 344 996 q 283 1037 283 996 q 290 1058 283 1050 l 393 1211 q 428 1229 406 1229 q 467 1189 467 1229 z "},"Ê":{"ha":729,"x_min":69,"x_max":683,"o":"m 683 52 q 671 24 683 36 q 642 12 659 12 l 110 12 q 81 24 94 12 q 69 52 69 36 l 69 874 q 81 902 69 890 q 110 914 94 914 l 642 914 q 671 902 659 914 q 683 874 683 890 q 671 846 683 858 q 642 833 659 833 l 151 833 l 151 503 l 527 503 q 555 491 543 503 q 567 463 567 479 q 555 435 567 447 q 527 422 543 422 l 151 422 l 151 93 l 642 93 q 671 81 659 93 q 683 52 683 68 m 545 1048 q 505 1007 545 1007 q 466 1034 485 1007 l 376 1162 l 286 1034 q 248 1007 267 1007 q 207 1048 207 1007 q 209 1061 207 1058 l 333 1236 q 376 1273 359 1273 q 418 1236 392 1273 l 543 1061 q 545 1048 545 1058 z "},"Ë":{"ha":729,"x_min":69,"x_max":683,"o":"m 683 52 q 671 24 683 36 q 642 12 659 12 l 110 12 q 81 24 94 12 q 69 52 69 36 l 69 874 q 81 902 69 890 q 110 914 94 914 l 642 914 q 671 902 659 914 q 683 874 683 890 q 671 846 683 858 q 642 833 659 833 l 151 833 l 151 503 l 527 503 q 555 491 543 503 q 567 463 567 479 q 555 435 567 447 q 527 422 543 422 l 151 422 l 151 93 l 642 93 q 671 81 659 93 q 683 52 683 68 m 521 1036 q 509 1008 521 1020 q 480 996 496 996 q 452 1008 464 996 q 439 1036 439 1020 q 452 1064 439 1052 q 480 1076 464 1076 q 509 1064 496 1076 q 521 1036 521 1052 m 313 1036 q 300 1008 313 1020 q 272 996 288 996 q 243 1008 256 996 q 231 1036 231 1020 q 243 1064 231 1052 q 272 1076 256 1076 q 300 1064 288 1076 q 313 1036 313 1052 z "},"Ì":{"ha":197,"x_min":18,"x_max":202,"o":"m 151 52 q 138 24 151 36 q 110 12 126 12 q 81 24 94 12 q 69 52 69 36 l 69 874 q 81 902 69 890 q 110 914 94 914 q 138 902 126 914 q 151 874 151 890 l 151 52 m 202 1037 q 163 996 202 996 q 128 1015 142 996 l 24 1168 q 18 1189 18 1176 q 58 1229 18 1229 q 92 1211 80 1229 l 197 1058 q 202 1037 202 1049 z "},"Í":{"ha":197,"x_min":18,"x_max":202,"o":"m 151 52 q 138 24 151 36 q 110 12 126 12 q 81 24 94 12 q 69 52 69 36 l 69 874 q 81 902 69 890 q 110 914 94 914 q 138 902 126 914 q 151 874 151 890 l 151 52 m 202 1189 q 197 1168 202 1177 l 92 1015 q 58 996 79 996 q 18 1037 18 996 q 24 1058 18 1050 l 128 1211 q 163 1229 141 1229 q 202 1189 202 1229 z "},"Î":{"ha":197,"x_min":-58,"x_max":279,"o":"m 151 52 q 138 24 151 36 q 110 12 126 12 q 81 24 94 12 q 69 52 69 36 l 69 874 q 81 902 69 890 q 110 914 94 914 q 138 902 126 914 q 151 874 151 890 l 151 52 m 279 1048 q 239 1007 279 1007 q 201 1034 220 1007 l 111 1162 l 20 1034 q -18 1007 2 1007 q -58 1048 -58 1007 q -56 1061 -58 1058 l 68 1236 q 111 1273 94 1273 q 153 1236 127 1273 l 277 1061 q 279 1048 279 1058 z "},"Ï":{"ha":197,"x_min":-34,"x_max":256,"o":"m 151 52 q 138 24 151 36 q 110 12 126 12 q 81 24 94 12 q 69 52 69 36 l 69 874 q 81 902 69 890 q 110 914 94 914 q 138 902 126 914 q 151 874 151 890 l 151 52 m 256 1036 q 243 1008 256 1020 q 215 996 231 996 q 186 1008 199 996 q 174 1036 174 1020 q 186 1064 174 1052 q 215 1076 199 1076 q 243 1064 231 1076 q 256 1036 256 1052 m 47 1036 q 35 1008 47 1020 q 7 996 23 996 q -22 1008 -9 996 q -34 1036 -34 1020 q -22 1064 -34 1052 q 7 1076 -9 1076 q 35 1064 23 1076 q 47 1036 47 1052 z "},"Ñ":{"ha":903,"x_min":69,"x_max":857,"o":"m 857 52 q 844 24 857 36 q 816 12 832 12 q 781 33 800 12 l 151 760 l 151 52 q 138 24 151 36 q 110 12 126 12 q 81 24 94 12 q 69 52 69 36 l 69 874 q 81 902 69 890 q 110 914 94 914 q 138 903 127 914 l 775 165 l 775 874 q 787 902 775 890 q 816 914 800 914 q 844 902 832 914 q 857 874 857 890 l 857 52 m 659 1076 q 607 1025 659 1055 q 532 996 555 996 q 467 1036 509 996 q 393 1076 427 1076 q 319 1046 364 1076 q 267 1016 273 1016 q 264 1020 264 1016 l 264 1024 q 266 1028 266 1028 l 266 1076 q 318 1127 266 1097 q 393 1158 370 1158 q 458 1117 418 1158 q 532 1076 498 1076 q 606 1106 562 1076 q 659 1137 651 1137 l 659 1076 z "},"Ò":{"ha":961,"x_min":41,"x_max":943,"o":"m 943 463 q 810 144 943 278 q 492 12 677 12 q 174 144 307 12 q 41 463 41 277 q 174 781 41 648 q 492 914 307 914 q 810 781 677 914 q 943 463 943 648 m 862 463 q 753 724 862 616 q 492 833 644 833 q 230 724 339 833 q 121 463 121 616 q 230 201 121 310 q 492 93 338 93 q 753 201 645 93 q 862 463 862 310 m 583 1037 q 544 996 583 996 q 509 1015 524 996 l 406 1168 q 399 1189 399 1176 q 439 1229 399 1229 q 473 1211 461 1229 l 578 1058 q 583 1037 583 1049 z "},"Ó":{"ha":961,"x_min":41,"x_max":943,"o":"m 943 463 q 810 144 943 278 q 492 12 677 12 q 174 144 307 12 q 41 463 41 277 q 174 781 41 648 q 492 914 307 914 q 810 781 677 914 q 943 463 943 648 m 862 463 q 753 724 862 616 q 492 833 644 833 q 230 724 339 833 q 121 463 121 616 q 230 201 121 310 q 492 93 338 93 q 753 201 645 93 q 862 463 862 310 m 583 1189 q 578 1168 583 1177 l 473 1015 q 439 996 460 996 q 399 1037 399 996 q 406 1058 399 1050 l 509 1211 q 544 1229 522 1229 q 583 1189 583 1229 z "},"Ô":{"ha":961,"x_min":41,"x_max":943,"o":"m 943 463 q 810 144 943 278 q 492 12 677 12 q 174 144 307 12 q 41 463 41 277 q 174 781 41 648 q 492 914 307 914 q 810 781 677 914 q 943 463 943 648 m 862 463 q 753 724 862 616 q 492 833 644 833 q 230 724 339 833 q 121 463 121 616 q 230 201 121 310 q 492 93 338 93 q 753 201 645 93 q 862 463 862 310 m 661 1048 q 621 1007 661 1007 q 582 1034 601 1007 l 492 1162 l 401 1034 q 363 1007 383 1007 q 323 1048 323 1007 q 325 1061 323 1058 l 449 1236 q 492 1273 475 1273 q 534 1236 508 1273 l 659 1061 q 661 1048 661 1058 z "},"Õ":{"ha":961,"x_min":41,"x_max":943,"o":"m 943 463 q 810 144 943 278 q 492 12 677 12 q 174 144 307 12 q 41 463 41 277 q 174 781 41 648 q 492 914 307 914 q 810 781 677 914 q 943 463 943 648 m 862 463 q 753 724 862 616 q 492 833 644 833 q 230 724 339 833 q 121 463 121 616 q 230 201 121 310 q 492 93 338 93 q 753 201 645 93 q 862 463 862 310 m 688 1076 q 636 1025 688 1055 q 562 996 584 996 q 496 1036 538 996 q 422 1076 456 1076 q 348 1046 393 1076 q 296 1016 302 1016 q 294 1020 294 1016 l 294 1024 q 295 1028 295 1028 l 295 1076 q 347 1127 295 1097 q 422 1158 399 1158 q 487 1117 447 1158 q 562 1076 528 1076 q 635 1106 591 1076 q 688 1137 680 1137 l 688 1076 z "},"Ö":{"ha":961,"x_min":41,"x_max":943,"o":"m 943 463 q 810 144 943 278 q 492 12 677 12 q 174 144 307 12 q 41 463 41 277 q 174 781 41 648 q 492 914 307 914 q 810 781 677 914 q 943 463 943 648 m 862 463 q 753 724 862 616 q 492 833 644 833 q 230 724 339 833 q 121 463 121 616 q 230 201 121 310 q 492 93 338 93 q 753 201 645 93 q 862 463 862 310 m 637 1036 q 625 1008 637 1020 q 596 996 612 996 q 568 1008 580 996 q 555 1036 555 1020 q 568 1064 555 1052 q 596 1076 580 1076 q 625 1064 612 1076 q 637 1036 637 1052 m 429 1036 q 416 1008 429 1020 q 388 996 404 996 q 359 1008 372 996 q 347 1036 347 1020 q 359 1064 347 1052 q 388 1076 372 1076 q 416 1064 404 1076 q 429 1036 429 1052 z "},"Ø":{"ha":961,"x_min":12,"x_max":972,"o":"m 972 874 q 961 845 972 855 l 848 740 q 943 463 943 612 q 810 144 943 278 q 492 12 677 12 q 192 126 326 12 l 81 23 q 52 12 68 12 q 12 52 12 12 q 23 81 12 71 l 136 186 q 41 463 41 314 q 174 781 41 648 q 492 914 307 914 q 791 800 658 914 l 903 903 q 932 914 916 914 q 972 874 972 914 m 732 744 q 492 833 621 833 q 231 724 340 833 q 121 463 121 614 q 195 242 121 346 l 732 744 m 862 463 q 789 684 862 579 l 251 182 q 492 93 362 93 q 753 202 644 93 q 862 463 862 311 z "},"Ù":{"ha":903,"x_min":69,"x_max":857,"o":"m 857 405 q 741 127 857 243 q 463 12 625 12 q 185 127 302 12 q 69 405 69 243 l 69 874 q 81 902 69 890 q 110 914 94 914 q 138 902 126 914 q 151 874 151 890 l 151 405 q 242 184 151 277 q 463 93 334 93 q 683 184 591 93 q 775 405 775 277 l 775 874 q 787 902 775 890 q 816 914 800 914 q 844 902 832 914 q 857 874 857 890 l 857 405 m 554 1037 q 515 996 554 996 q 480 1015 494 996 l 376 1168 q 370 1189 370 1176 q 410 1229 370 1229 q 444 1211 432 1229 l 549 1058 q 554 1037 554 1049 z "},"Ú":{"ha":903,"x_min":69,"x_max":857,"o":"m 857 405 q 741 127 857 243 q 463 12 625 12 q 185 127 302 12 q 69 405 69 243 l 69 874 q 81 902 69 890 q 110 914 94 914 q 138 902 126 914 q 151 874 151 890 l 151 405 q 242 184 151 277 q 463 93 334 93 q 683 184 591 93 q 775 405 775 277 l 775 874 q 787 902 775 890 q 816 914 800 914 q 844 902 832 914 q 857 874 857 890 l 857 405 m 554 1189 q 549 1168 554 1177 l 444 1015 q 410 996 431 996 q 370 1037 370 996 q 376 1058 370 1050 l 480 1211 q 515 1229 493 1229 q 554 1189 554 1229 z "},"Û":{"ha":903,"x_min":69,"x_max":857,"o":"m 857 405 q 741 127 857 243 q 463 12 625 12 q 185 127 302 12 q 69 405 69 243 l 69 874 q 81 902 69 890 q 110 914 94 914 q 138 902 126 914 q 151 874 151 890 l 151 405 q 242 184 151 277 q 463 93 334 93 q 683 184 591 93 q 775 405 775 277 l 775 874 q 787 902 775 890 q 816 914 800 914 q 844 902 832 914 q 857 874 857 890 l 857 405 m 631 1048 q 591 1007 631 1007 q 553 1034 572 1007 l 463 1162 l 372 1034 q 334 1007 354 1007 q 294 1048 294 1007 q 296 1061 294 1058 l 420 1236 q 463 1273 446 1273 q 505 1236 479 1273 l 629 1061 q 631 1048 631 1058 z "},"Ü":{"ha":903,"x_min":69,"x_max":857,"o":"m 857 405 q 741 127 857 243 q 463 12 625 12 q 185 127 302 12 q 69 405 69 243 l 69 874 q 81 902 69 890 q 110 914 94 914 q 138 902 126 914 q 151 874 151 890 l 151 405 q 242 184 151 277 q 463 93 334 93 q 683 184 591 93 q 775 405 775 277 l 775 874 q 787 902 775 890 q 816 914 800 914 q 844 902 832 914 q 857 874 857 890 l 857 405 m 608 1036 q 595 1008 608 1020 q 567 996 583 996 q 538 1008 551 996 q 526 1036 526 1020 q 538 1064 526 1052 q 567 1076 551 1076 q 595 1064 583 1076 q 608 1036 608 1052 m 399 1036 q 387 1008 399 1020 q 359 996 375 996 q 330 1008 342 996 q 318 1036 318 1020 q 330 1064 318 1052 q 359 1076 342 1076 q 387 1064 375 1076 q 399 1036 399 1052 z "},"ß":{"ha":578,"x_min":69,"x_max":562,"o":"m 562 258 q 490 83 562 155 q 316 12 419 12 q 288 24 300 12 q 275 52 275 36 q 328 93 275 93 l 328 94 q 435 146 390 99 q 480 258 480 195 q 431 374 480 326 q 316 422 383 422 q 288 435 300 422 q 275 463 275 447 q 288 491 275 479 q 316 503 300 503 q 431 552 383 503 q 480 668 480 601 q 431 783 480 733 q 317 833 383 833 q 199 785 249 833 q 151 668 151 736 l 151 -178 q 138 -207 151 -195 q 110 -219 126 -219 q 81 -207 94 -219 q 69 -178 69 -195 l 69 668 q 141 842 69 771 q 316 914 213 914 q 490 842 419 914 q 562 668 562 771 q 452 463 562 547 q 562 258 562 380 z "},"à":{"ha":874,"x_min":41,"x_max":827,"o":"m 827 52 q 815 24 827 36 q 787 12 803 12 q 759 24 771 12 q 747 52 747 36 l 747 185 q 434 12 618 12 q 156 127 273 12 q 41 405 41 243 q 156 683 41 566 q 434 799 272 799 q 747 625 618 799 l 747 758 q 759 787 747 774 q 787 799 771 799 q 815 787 803 799 q 827 758 827 774 l 827 52 m 747 405 q 654 625 747 534 q 434 718 562 718 q 214 625 306 718 q 121 405 121 534 q 214 184 121 277 q 434 93 306 93 q 654 184 562 93 q 747 405 747 277 m 539 922 q 500 880 539 880 q 465 900 479 880 l 361 1053 q 355 1074 355 1061 q 395 1114 355 1114 q 429 1095 417 1114 l 534 943 q 539 922 539 934 z "},"á":{"ha":874,"x_min":41,"x_max":827,"o":"m 827 52 q 815 24 827 36 q 787 12 803 12 q 759 24 771 12 q 747 52 747 36 l 747 185 q 434 12 618 12 q 156 127 273 12 q 41 405 41 243 q 156 683 41 566 q 434 799 272 799 q 747 625 618 799 l 747 758 q 759 787 747 774 q 787 799 771 799 q 815 787 803 799 q 827 758 827 774 l 827 52 m 747 405 q 654 625 747 534 q 434 718 562 718 q 214 625 306 718 q 121 405 121 534 q 214 184 121 277 q 434 93 306 93 q 654 184 562 93 q 747 405 747 277 m 539 1074 q 534 1053 539 1061 l 429 900 q 395 880 416 880 q 355 922 355 880 q 361 943 355 935 l 465 1095 q 500 1114 478 1114 q 539 1074 539 1114 z "},"â":{"ha":874,"x_min":41,"x_max":827,"o":"m 827 52 q 815 24 827 36 q 787 12 803 12 q 759 24 771 12 q 747 52 747 36 l 747 185 q 434 12 618 12 q 156 127 273 12 q 41 405 41 243 q 156 683 41 566 q 434 799 272 799 q 747 625 618 799 l 747 758 q 759 787 747 774 q 787 799 771 799 q 815 787 803 799 q 827 758 827 774 l 827 52 m 747 405 q 654 625 747 534 q 434 718 562 718 q 214 625 306 718 q 121 405 121 534 q 214 184 121 277 q 434 93 306 93 q 654 184 562 93 q 747 405 747 277 m 616 932 q 576 892 616 892 q 538 918 557 892 l 448 1046 l 357 918 q 319 892 339 892 q 279 932 279 892 q 281 946 279 943 l 405 1121 q 448 1158 431 1158 q 490 1121 464 1158 l 614 946 q 616 932 616 943 z "},"ã":{"ha":874,"x_min":41,"x_max":827,"o":"m 827 52 q 815 24 827 36 q 787 12 803 12 q 759 24 771 12 q 747 52 747 36 l 747 185 q 434 12 618 12 q 156 127 273 12 q 41 405 41 243 q 156 683 41 566 q 434 799 272 799 q 747 625 618 799 l 747 758 q 759 787 747 774 q 787 799 771 799 q 815 787 803 799 q 827 758 827 774 l 827 52 m 747 405 q 654 625 747 534 q 434 718 562 718 q 214 625 306 718 q 121 405 121 534 q 214 184 121 277 q 434 93 306 93 q 654 184 562 93 q 747 405 747 277 m 644 961 q 592 910 644 940 q 517 880 540 880 q 452 920 494 880 q 378 961 412 961 q 304 930 349 961 q 252 901 258 901 q 250 905 250 901 l 250 909 q 251 913 251 913 l 251 961 q 303 1012 251 982 q 378 1042 355 1042 q 443 1002 403 1042 q 517 961 484 961 q 591 991 547 961 q 644 1021 636 1021 l 644 961 z "},"ä":{"ha":874,"x_min":41,"x_max":827,"o":"m 827 52 q 815 24 827 36 q 787 12 803 12 q 759 24 771 12 q 747 52 747 36 l 747 185 q 434 12 618 12 q 156 127 273 12 q 41 405 41 243 q 156 683 41 566 q 434 799 272 799 q 747 625 618 799 l 747 758 q 759 787 747 774 q 787 799 771 799 q 815 787 803 799 q 827 758 827 774 l 827 52 m 747 405 q 654 625 747 534 q 434 718 562 718 q 214 625 306 718 q 121 405 121 534 q 214 184 121 277 q 434 93 306 93 q 654 184 562 93 q 747 405 747 277 m 593 920 q 581 892 593 905 q 552 880 568 880 q 524 892 536 880 q 511 920 511 905 q 524 949 511 937 q 552 961 536 961 q 581 949 568 961 q 593 920 593 937 m 385 920 q 372 892 385 905 q 344 880 360 880 q 315 892 328 880 q 303 920 303 905 q 315 949 303 937 q 344 961 328 961 q 372 949 360 961 q 385 920 385 937 z "},"å":{"ha":874,"x_min":41,"x_max":827,"o":"m 827 52 q 815 24 827 36 q 787 12 803 12 q 759 24 771 12 q 747 52 747 36 l 747 185 q 434 12 618 12 q 156 127 273 12 q 41 405 41 243 q 156 683 41 566 q 434 799 272 799 q 747 625 618 799 l 747 758 q 759 787 747 774 q 787 799 771 799 q 815 787 803 799 q 827 758 827 774 l 827 52 m 747 405 q 654 625 747 534 q 434 718 562 718 q 214 625 306 718 q 121 405 121 534 q 214 184 121 277 q 434 93 306 93 q 654 184 562 93 q 747 405 747 277 m 552 984 q 522 911 552 941 q 448 880 491 880 q 374 911 406 880 q 344 984 344 941 q 374 1057 344 1027 q 448 1088 406 1088 q 522 1057 491 1088 q 552 984 552 1027 m 517 984 q 512 1011 517 998 q 497 1034 507 1024 q 475 1048 488 1043 q 448 1054 463 1054 q 421 1048 434 1054 q 399 1034 408 1043 q 384 1011 389 1024 q 378 984 378 998 q 384 957 378 970 q 399 935 389 945 q 421 920 408 926 q 448 915 434 915 q 475 920 463 915 q 497 935 488 926 q 512 957 507 945 q 517 984 517 970 z "},"æ":{"ha":1477,"x_min":41,"x_max":1430,"o":"m 1430 655 q 1419 626 1430 637 l 950 157 q 1140 93 1043 93 q 1326 154 1253 93 q 1341 167 1334 161 q 1356 180 1348 174 q 1390 197 1375 197 q 1418 184 1407 197 q 1430 155 1430 172 q 1375 90 1430 126 q 1140 12 1256 12 q 827 165 967 12 l 827 52 q 815 24 827 36 q 787 12 803 12 q 759 24 771 12 q 747 52 747 36 l 747 185 q 434 12 618 12 q 156 127 273 12 q 41 405 41 243 q 156 683 41 566 q 434 799 272 799 q 747 625 618 799 l 747 758 q 759 787 747 774 q 787 799 771 799 q 815 787 803 799 q 827 758 827 774 l 827 645 q 1140 799 967 799 q 1375 720 1254 799 q 1430 655 1430 684 m 1337 647 q 1142 718 1244 718 q 921 626 1013 718 q 830 405 830 534 q 899 210 830 296 l 1337 647 m 747 405 q 654 625 747 534 q 434 718 562 718 q 214 625 306 718 q 121 405 121 534 q 214 184 121 277 q 434 93 306 93 q 654 184 562 93 q 747 405 747 277 z "},"è":{"ha":771,"x_min":41,"x_max":724,"o":"m 724 655 q 713 626 724 637 l 244 157 q 434 93 337 93 q 621 154 547 93 q 649 180 635 167 q 684 197 668 197 q 712 184 701 197 q 724 155 724 172 q 669 90 724 127 q 434 12 551 12 q 157 127 273 12 q 41 405 41 244 q 157 682 41 566 q 434 799 273 799 q 669 720 548 799 q 724 655 724 683 m 631 647 q 434 718 538 718 q 213 626 304 718 q 121 405 121 534 q 193 210 121 300 l 631 647 m 488 922 q 449 880 488 880 q 414 900 429 880 l 311 1053 q 304 1074 304 1061 q 344 1114 304 1114 q 378 1095 366 1114 l 483 943 q 488 922 488 934 z "},"é":{"ha":771,"x_min":41,"x_max":724,"o":"m 724 655 q 713 626 724 637 l 244 157 q 434 93 337 93 q 621 154 547 93 q 649 180 635 167 q 684 197 668 197 q 712 184 701 197 q 724 155 724 172 q 669 90 724 127 q 434 12 551 12 q 157 127 273 12 q 41 405 41 244 q 157 682 41 566 q 434 799 273 799 q 669 720 548 799 q 724 655 724 683 m 631 647 q 434 718 538 718 q 213 626 304 718 q 121 405 121 534 q 193 210 121 300 l 631 647 m 488 1074 q 483 1053 488 1061 l 378 900 q 344 880 365 880 q 304 922 304 880 q 311 943 304 935 l 414 1095 q 449 1114 427 1114 q 488 1074 488 1114 z "},"ê":{"ha":771,"x_min":41,"x_max":724,"o":"m 724 655 q 713 626 724 637 l 244 157 q 434 93 337 93 q 621 154 547 93 q 649 180 635 167 q 684 197 668 197 q 712 184 701 197 q 724 155 724 172 q 669 90 724 127 q 434 12 551 12 q 157 127 273 12 q 41 405 41 244 q 157 682 41 566 q 434 799 273 799 q 669 720 548 799 q 724 655 724 683 m 631 647 q 434 718 538 718 q 213 626 304 718 q 121 405 121 534 q 193 210 121 300 l 631 647 m 566 932 q 526 892 566 892 q 487 918 506 892 l 397 1046 l 307 918 q 269 892 288 892 q 228 932 228 892 q 230 946 228 943 l 354 1121 q 397 1158 380 1158 q 439 1121 413 1158 l 564 946 q 566 932 566 943 z "},"ë":{"ha":771,"x_min":41,"x_max":724,"o":"m 724 655 q 713 626 724 637 l 244 157 q 434 93 337 93 q 621 154 547 93 q 649 180 635 167 q 684 197 668 197 q 712 184 701 197 q 724 155 724 172 q 669 90 724 127 q 434 12 551 12 q 157 127 273 12 q 41 405 41 244 q 157 682 41 566 q 434 799 273 799 q 669 720 548 799 q 724 655 724 683 m 631 647 q 434 718 538 718 q 213 626 304 718 q 121 405 121 534 q 193 210 121 300 l 631 647 m 542 920 q 530 892 542 905 q 501 880 517 880 q 473 892 485 880 q 460 920 460 905 q 473 949 460 937 q 501 961 485 961 q 530 949 517 961 q 542 920 542 937 m 334 920 q 321 892 334 905 q 293 880 309 880 q 264 892 277 880 q 252 920 252 905 q 264 949 252 937 q 293 961 277 961 q 321 949 309 961 q 334 920 334 937 z "},"ì":{"ha":197,"x_min":18,"x_max":202,"o":"m 151 52 q 138 24 151 36 q 110 12 126 12 q 81 24 94 12 q 69 52 69 36 l 69 758 q 81 787 69 774 q 110 799 94 799 q 138 787 126 799 q 151 758 151 774 l 151 52 m 202 922 q 163 880 202 880 q 128 900 142 880 l 24 1053 q 18 1074 18 1061 q 58 1114 18 1114 q 92 1095 80 1114 l 197 943 q 202 922 202 934 z "},"í":{"ha":197,"x_min":18,"x_max":202,"o":"m 151 52 q 138 24 151 36 q 110 12 126 12 q 81 24 94 12 q 69 52 69 36 l 69 758 q 81 787 69 774 q 110 799 94 799 q 138 787 126 799 q 151 758 151 774 l 151 52 m 202 1074 q 197 1053 202 1061 l 92 900 q 58 880 79 880 q 18 922 18 880 q 24 943 18 935 l 128 1095 q 163 1114 141 1114 q 202 1074 202 1114 z "},"î":{"ha":197,"x_min":-58,"x_max":279,"o":"m 151 52 q 138 24 151 36 q 110 12 126 12 q 81 24 94 12 q 69 52 69 36 l 69 758 q 81 787 69 774 q 110 799 94 799 q 138 787 126 799 q 151 758 151 774 l 151 52 m 279 932 q 239 892 279 892 q 201 918 220 892 l 111 1046 l 20 918 q -18 892 2 892 q -58 932 -58 892 q -56 946 -58 943 l 68 1121 q 111 1158 94 1158 q 153 1121 127 1158 l 277 946 q 279 932 279 943 z "},"ï":{"ha":197,"x_min":-34,"x_max":256,"o":"m 151 52 q 138 24 151 36 q 110 12 126 12 q 81 24 94 12 q 69 52 69 36 l 69 758 q 81 787 69 774 q 110 799 94 799 q 138 787 126 799 q 151 758 151 774 l 151 52 m 256 920 q 243 892 256 905 q 215 880 231 880 q 186 892 199 880 q 174 920 174 905 q 186 949 174 937 q 215 961 199 961 q 243 949 231 961 q 256 920 256 937 m 47 920 q 35 892 47 905 q 7 880 23 880 q -22 892 -9 880 q -34 920 -34 905 q -22 949 -34 937 q 7 961 -9 961 q 35 949 23 961 q 47 920 47 937 z "},"ñ":{"ha":903,"x_min":69,"x_max":857,"o":"m 857 52 q 844 24 857 36 q 816 12 832 12 q 787 24 800 12 q 775 52 775 36 l 775 405 q 683 625 775 534 q 463 718 591 718 q 242 625 334 718 q 151 405 151 534 l 151 52 q 138 24 151 36 q 110 12 126 12 q 81 24 94 12 q 69 52 69 36 l 69 758 q 81 787 69 774 q 110 799 94 799 q 138 787 126 799 q 151 758 151 774 l 151 626 q 473 799 285 799 q 744 681 632 799 q 857 405 857 564 l 857 52 m 659 961 q 607 910 659 940 q 532 880 555 880 q 467 920 509 880 q 393 961 427 961 q 319 930 364 961 q 267 901 273 901 q 264 905 264 901 l 264 909 q 266 913 266 913 l 266 961 q 318 1012 266 982 q 393 1042 370 1042 q 458 1002 418 1042 q 532 961 498 961 q 606 991 562 961 q 659 1021 651 1021 l 659 961 z "},"ò":{"ha":845,"x_min":41,"x_max":827,"o":"m 827 405 q 711 127 827 243 q 434 12 596 12 q 156 127 273 12 q 41 405 41 243 q 156 683 41 566 q 434 799 272 799 q 711 683 596 799 q 827 405 827 567 m 747 405 q 654 625 747 534 q 434 718 562 718 q 214 625 306 718 q 121 405 121 534 q 214 184 121 277 q 434 93 306 93 q 654 184 562 93 q 747 405 747 277 m 525 922 q 486 880 525 880 q 451 900 465 880 l 347 1053 q 341 1074 341 1061 q 380 1114 341 1114 q 415 1095 403 1114 l 519 943 q 525 922 525 934 z "},"ó":{"ha":845,"x_min":41,"x_max":827,"o":"m 827 405 q 711 127 827 243 q 434 12 596 12 q 156 127 273 12 q 41 405 41 243 q 156 683 41 566 q 434 799 272 799 q 711 683 596 799 q 827 405 827 567 m 747 405 q 654 625 747 534 q 434 718 562 718 q 214 625 306 718 q 121 405 121 534 q 214 184 121 277 q 434 93 306 93 q 654 184 562 93 q 747 405 747 277 m 525 1074 q 519 1053 525 1061 l 415 900 q 380 880 401 880 q 341 922 341 880 q 347 943 341 935 l 451 1095 q 486 1114 464 1114 q 525 1074 525 1114 z "},"ô":{"ha":845,"x_min":41,"x_max":827,"o":"m 827 405 q 711 127 827 243 q 434 12 596 12 q 156 127 273 12 q 41 405 41 243 q 156 683 41 566 q 434 799 272 799 q 711 683 596 799 q 827 405 827 567 m 747 405 q 654 625 747 534 q 434 718 562 718 q 214 625 306 718 q 121 405 121 534 q 214 184 121 277 q 434 93 306 93 q 654 184 562 93 q 747 405 747 277 m 603 932 q 563 892 603 892 q 524 918 543 892 l 434 1046 l 344 918 q 306 892 326 892 q 265 932 265 892 q 267 946 265 943 l 391 1121 q 434 1158 418 1158 q 477 1121 450 1158 l 601 946 q 603 932 603 943 z "},"õ":{"ha":845,"x_min":41,"x_max":827,"o":"m 827 405 q 711 127 827 243 q 434 12 596 12 q 156 127 273 12 q 41 405 41 243 q 156 683 41 566 q 434 799 272 799 q 711 683 596 799 q 827 405 827 567 m 747 405 q 654 625 747 534 q 434 718 562 718 q 214 625 306 718 q 121 405 121 534 q 214 184 121 277 q 434 93 306 93 q 654 184 562 93 q 747 405 747 277 m 631 961 q 578 910 631 940 q 504 880 526 880 q 439 920 480 880 q 365 961 398 961 q 290 930 336 961 q 239 901 245 901 q 236 905 236 901 l 236 909 q 237 913 237 913 l 237 961 q 290 1012 237 982 q 365 1042 341 1042 q 429 1002 389 1042 q 504 961 470 961 q 578 991 534 961 q 631 1021 623 1021 l 631 961 z "},"ö":{"ha":845,"x_min":41,"x_max":827,"o":"m 827 405 q 711 127 827 243 q 434 12 596 12 q 156 127 273 12 q 41 405 41 243 q 156 683 41 566 q 434 799 272 799 q 711 683 596 799 q 827 405 827 567 m 747 405 q 654 625 747 534 q 434 718 562 718 q 214 625 306 718 q 121 405 121 534 q 214 184 121 277 q 434 93 306 93 q 654 184 562 93 q 747 405 747 277 m 579 920 q 567 892 579 905 q 538 880 555 880 q 510 892 522 880 q 498 920 498 905 q 510 949 498 937 q 538 961 522 961 q 567 949 555 961 q 579 920 579 937 m 371 920 q 359 892 371 905 q 330 880 347 880 q 302 892 314 880 q 290 920 290 905 q 302 949 290 937 q 330 961 314 961 q 359 949 347 961 q 371 920 371 937 z "},"÷":{"ha":614,"x_min":98,"x_max":538,"o":"m 359 642 q 347 614 359 626 q 318 602 334 602 q 290 614 302 602 q 278 642 278 626 q 290 671 278 659 q 318 683 302 683 q 347 671 334 683 q 359 642 359 659 m 538 463 q 526 435 538 447 q 498 422 514 422 l 139 422 q 111 435 123 422 q 98 463 98 447 q 111 491 98 479 q 139 503 123 503 l 498 503 q 526 491 514 503 q 538 463 538 479 m 359 283 q 347 255 359 267 q 318 243 334 243 q 290 255 302 243 q 278 283 278 267 q 290 312 278 300 q 318 324 302 324 q 347 312 334 324 q 359 283 359 300 z "},"ø":{"ha":845,"x_min":12,"x_max":857,"o":"m 857 758 q 845 729 857 741 l 749 640 q 827 405 827 530 q 711 127 827 243 q 434 12 596 12 q 175 110 292 12 l 81 23 q 52 12 68 12 q 12 52 12 12 q 23 81 12 71 l 119 170 q 41 405 41 281 q 156 683 41 566 q 434 799 272 799 q 693 701 576 799 l 787 787 q 816 799 800 799 q 857 758 857 799 m 634 646 q 434 718 541 718 q 214 625 306 718 q 121 405 121 534 q 180 226 121 315 l 634 646 m 747 405 q 688 585 747 494 l 234 164 q 434 93 328 93 q 654 184 562 93 q 747 405 747 277 z "},"ù":{"ha":903,"x_min":69,"x_max":857,"o":"m 857 52 q 844 24 857 36 q 816 12 832 12 q 787 24 800 12 q 775 52 775 36 l 775 184 q 452 12 641 12 q 181 129 294 12 q 69 405 69 247 l 69 758 q 81 787 69 774 q 110 799 94 799 q 138 787 126 799 q 151 758 151 774 l 151 405 q 242 184 151 277 q 463 93 334 93 q 683 184 591 93 q 775 405 775 277 l 775 758 q 787 787 775 774 q 816 799 800 799 q 844 787 832 799 q 857 758 857 774 l 857 52 m 554 922 q 515 880 554 880 q 480 900 494 880 l 376 1053 q 370 1074 370 1061 q 410 1114 370 1114 q 444 1095 432 1114 l 549 943 q 554 922 554 934 z "},"ú":{"ha":903,"x_min":69,"x_max":857,"o":"m 857 52 q 844 24 857 36 q 816 12 832 12 q 787 24 800 12 q 775 52 775 36 l 775 184 q 452 12 641 12 q 181 129 294 12 q 69 405 69 247 l 69 758 q 81 787 69 774 q 110 799 94 799 q 138 787 126 799 q 151 758 151 774 l 151 405 q 242 184 151 277 q 463 93 334 93 q 683 184 591 93 q 775 405 775 277 l 775 758 q 787 787 775 774 q 816 799 800 799 q 844 787 832 799 q 857 758 857 774 l 857 52 m 554 1074 q 549 1053 554 1061 l 444 900 q 410 880 431 880 q 370 922 370 880 q 376 943 370 935 l 480 1095 q 515 1114 493 1114 q 554 1074 554 1114 z "},"û":{"ha":903,"x_min":69,"x_max":857,"o":"m 857 52 q 844 24 857 36 q 816 12 832 12 q 787 24 800 12 q 775 52 775 36 l 775 184 q 452 12 641 12 q 181 129 294 12 q 69 405 69 247 l 69 758 q 81 787 69 774 q 110 799 94 799 q 138 787 126 799 q 151 758 151 774 l 151 405 q 242 184 151 277 q 463 93 334 93 q 683 184 591 93 q 775 405 775 277 l 775 758 q 787 787 775 774 q 816 799 800 799 q 844 787 832 799 q 857 758 857 774 l 857 52 m 631 932 q 591 892 631 892 q 553 918 572 892 l 463 1046 l 372 918 q 334 892 354 892 q 294 932 294 892 q 296 946 294 943 l 420 1121 q 463 1158 446 1158 q 505 1121 479 1158 l 629 946 q 631 932 631 943 z "},"ü":{"ha":903,"x_min":69,"x_max":857,"o":"m 857 52 q 844 24 857 36 q 816 12 832 12 q 787 24 800 12 q 775 52 775 36 l 775 184 q 452 12 641 12 q 181 129 294 12 q 69 405 69 247 l 69 758 q 81 787 69 774 q 110 799 94 799 q 138 787 126 799 q 151 758 151 774 l 151 405 q 242 184 151 277 q 463 93 334 93 q 683 184 591 93 q 775 405 775 277 l 775 758 q 787 787 775 774 q 816 799 800 799 q 844 787 832 799 q 857 758 857 774 l 857 52 m 608 920 q 595 892 608 905 q 567 880 583 880 q 538 892 551 880 q 526 920 526 905 q 538 949 526 937 q 567 961 551 961 q 595 949 583 961 q 608 920 608 937 m 399 920 q 387 892 399 905 q 359 880 375 880 q 330 892 342 880 q 318 920 318 905 q 330 949 318 937 q 359 961 342 961 q 387 949 375 961 q 399 920 399 937 z "},"ÿ":{"ha":903,"x_min":69,"x_max":857,"o":"m 857 -178 q 844 -207 857 -195 q 816 -219 832 -219 l 341 -219 q 313 -207 326 -219 q 301 -178 301 -195 q 313 -150 301 -162 q 341 -138 326 -138 l 775 -138 l 775 184 q 452 12 641 12 q 181 129 294 12 q 69 405 69 247 l 69 758 q 81 787 69 774 q 110 799 94 799 q 138 787 126 799 q 151 758 151 774 l 151 405 q 242 184 151 277 q 463 93 334 93 q 683 184 591 93 q 775 405 775 277 l 775 758 q 787 787 775 774 q 816 799 800 799 q 844 787 832 799 q 857 758 857 774 l 857 -178 m 608 920 q 595 892 608 905 q 567 880 583 880 q 538 892 551 880 q 526 920 526 905 q 538 949 526 937 q 567 961 551 961 q 595 949 583 961 q 608 920 608 937 m 399 920 q 387 892 399 905 q 359 880 375 880 q 330 892 342 880 q 318 920 318 905 q 330 949 318 937 q 359 961 342 961 q 387 949 375 961 q 399 920 399 937 z "},"¯":{"ha":614,"x_min":-39,"x_max":677,"o":"m 677 874 q 665 846 677 858 q 637 833 653 833 l 0 833 q -27 846 -15 833 q -39 874 -39 858 q -27 902 -39 890 q 0 914 -15 914 l 637 914 q 665 902 653 914 q 677 874 677 890 z "},"ı":{"ha":197,"x_min":69,"x_max":151,"o":"m 151 52 q 138 24 151 36 q 110 12 126 12 q 81 24 94 12 q 69 52 69 36 l 69 758 q 81 787 69 774 q 110 799 94 799 q 138 787 126 799 q 151 758 151 774 l 151 52 z "},"ˇ":{"ha":511,"x_min":98,"x_max":436,"o":"m 436 1233 q 434 1219 436 1221 l 310 1044 q 267 1007 283 1007 q 224 1044 251 1007 l 100 1219 q 98 1233 98 1221 q 139 1273 98 1273 q 177 1246 159 1273 l 267 1118 l 357 1246 q 396 1273 376 1273 q 436 1233 436 1273 z "},"˚":{"ha":382,"x_min":98,"x_max":307,"o":"m 307 1099 q 276 1026 307 1057 q 203 996 245 996 q 129 1026 160 996 q 98 1099 98 1057 q 129 1173 98 1142 q 203 1204 160 1204 q 276 1173 245 1204 q 307 1099 307 1142 m 272 1099 q 267 1126 272 1114 q 252 1149 261 1139 q 230 1164 242 1158 q 203 1169 217 1169 q 176 1164 189 1169 q 153 1149 163 1158 q 138 1126 144 1139 q 133 1099 133 1114 q 138 1073 133 1085 q 153 1050 144 1060 q 176 1036 163 1041 q 203 1030 189 1030 q 230 1036 217 1030 q 252 1050 242 1041 q 267 1073 261 1060 q 272 1099 272 1085 z "}," ":{"ha":498,"x_min":0,"x_max":0,"o":""},"Š":{"ha":549,"x_min":41,"x_max":531,"o":"m 531 258 q 458 84 531 158 q 286 12 386 12 q 163 44 222 12 q 73 133 100 78 q 67 154 67 144 q 79 182 67 170 q 106 195 90 195 q 144 172 126 195 q 153 161 147 168 q 165 144 158 154 q 286 93 213 93 q 401 142 353 93 q 450 258 450 191 q 401 374 450 326 q 286 422 353 422 q 113 494 184 422 q 41 668 41 566 q 113 841 41 769 q 286 914 184 914 q 408 882 349 914 q 499 793 471 848 q 505 772 505 781 q 493 744 505 755 q 465 732 481 732 q 428 753 446 732 q 419 765 425 758 q 406 781 414 772 q 286 833 358 833 q 170 784 219 833 q 121 668 121 735 q 170 552 121 601 q 286 503 219 503 q 458 431 386 503 q 531 258 531 358 m 454 1233 q 452 1219 454 1221 l 328 1044 q 286 1007 302 1007 q 243 1044 269 1007 l 119 1219 q 117 1233 117 1221 q 157 1273 117 1273 q 195 1246 177 1273 l 286 1118 l 376 1246 q 414 1273 395 1273 q 454 1233 454 1273 z "},"š":{"ha":491,"x_min":41,"x_max":473,"o":"m 473 229 q 410 76 473 140 q 257 12 345 12 q 148 39 200 12 q 69 119 93 69 q 64 141 64 134 q 76 168 64 156 q 103 180 88 180 q 161 136 118 180 q 257 93 203 93 q 353 133 313 93 q 393 229 393 174 q 353 325 393 285 q 257 365 313 365 q 104 428 168 365 q 41 581 41 492 q 104 734 41 670 q 257 799 168 799 q 367 769 313 799 q 444 691 421 739 q 450 670 450 680 q 438 642 450 654 q 410 629 426 629 q 353 673 395 629 q 257 718 313 718 q 161 677 201 718 q 121 581 121 637 q 161 486 121 526 q 257 446 201 446 q 410 382 346 446 q 473 229 473 318 m 427 1118 q 425 1103 427 1106 l 300 928 q 258 892 274 892 q 215 928 241 892 l 91 1103 q 89 1118 89 1106 q 130 1158 89 1158 q 168 1131 149 1158 l 258 1003 l 348 1131 q 387 1158 367 1158 q 427 1118 427 1158 z "},"¦":{"ha":254,"x_min":98,"x_max":180,"o":"m 180 573 q 168 545 180 557 q 139 532 155 532 q 111 545 123 532 q 98 573 98 557 l 98 989 q 111 1018 98 1006 q 139 1030 123 1030 q 168 1018 155 1030 q 180 989 180 1006 l 180 573 m 180 -62 q 168 -91 180 -79 q 139 -103 155 -103 q 111 -91 123 -103 q 98 -62 98 -79 l 98 353 q 111 381 98 369 q 139 393 123 393 q 168 381 155 393 q 180 353 180 369 l 180 -62 z "},"­":{"ha":614,"x_min":98,"x_max":538,"o":"m 538 463 q 526 435 538 447 q 498 422 514 422 l 139 422 q 111 435 123 422 q 98 463 98 447 q 111 491 98 479 q 139 503 123 503 l 498 503 q 526 491 514 503 q 538 463 538 479 z "},"ˉ":{"ha":498,"x_min":98,"x_max":422,"o":"m 422 1036 q 410 1008 422 1020 q 382 996 398 996 l 139 996 q 111 1008 123 996 q 98 1036 98 1020 q 111 1064 98 1052 q 139 1076 123 1076 l 382 1076 q 410 1064 398 1076 q 422 1036 422 1052 z "},"×":{"ha":542,"x_min":98,"x_max":467,"o":"m 467 606 q 455 578 467 589 l 340 463 l 455 349 q 465 321 465 337 q 425 279 465 279 q 397 290 408 279 l 282 405 l 168 290 q 140 279 156 279 q 100 321 100 279 q 110 349 100 337 l 224 463 l 110 578 q 98 606 98 589 q 140 646 98 646 q 168 635 157 646 l 282 521 l 397 635 q 425 646 408 646 q 467 606 467 646 z "},"Ý":{"ha":795,"x_min":23,"x_max":795,"o":"m 795 874 q 785 847 795 860 l 449 449 l 449 52 q 437 24 449 36 q 408 12 425 12 q 380 24 393 12 q 368 52 368 36 l 368 450 l 33 848 q 23 874 23 859 q 62 914 23 914 q 94 901 82 914 l 408 524 l 724 901 q 755 914 736 914 q 783 902 771 914 q 795 874 795 890 m 500 1189 q 494 1168 500 1177 l 390 1015 q 355 996 376 996 q 316 1037 316 996 q 322 1058 316 1050 l 426 1211 q 460 1229 439 1229 q 500 1189 500 1229 z "},"Þ":{"ha":758,"x_min":69,"x_max":741,"o":"m 741 463 q 651 248 741 338 q 437 159 562 159 l 151 159 l 151 52 q 138 24 151 36 q 110 12 126 12 q 81 24 94 12 q 69 52 69 36 l 69 874 q 81 902 69 890 q 110 914 94 914 q 138 902 126 914 q 151 874 151 890 l 151 766 l 437 766 q 651 677 562 766 q 741 463 741 588 m 660 463 q 594 619 660 554 q 437 685 529 685 l 151 685 l 151 239 l 437 239 q 594 305 529 239 q 660 463 660 371 z "},"ý":{"ha":903,"x_min":69,"x_max":857,"o":"m 857 -178 q 844 -207 857 -195 q 816 -219 832 -219 l 341 -219 q 313 -207 326 -219 q 301 -178 301 -195 q 313 -150 301 -162 q 341 -138 326 -138 l 775 -138 l 775 184 q 452 12 641 12 q 181 129 294 12 q 69 405 69 247 l 69 758 q 81 787 69 774 q 110 799 94 799 q 138 787 126 799 q 151 758 151 774 l 151 405 q 242 184 151 277 q 463 93 334 93 q 683 184 591 93 q 775 405 775 277 l 775 758 q 787 787 775 774 q 816 799 800 799 q 844 787 832 799 q 857 758 857 774 l 857 -178 m 554 1074 q 549 1053 554 1061 l 444 900 q 410 880 431 880 q 370 922 370 880 q 376 943 370 935 l 480 1095 q 515 1114 493 1114 q 554 1074 554 1114 z "},"þ":{"ha":758,"x_min":69,"x_max":741,"o":"m 741 347 q 651 132 741 222 q 437 43 562 43 l 151 43 l 151 -62 q 138 -91 151 -79 q 110 -103 126 -103 q 81 -91 94 -103 q 69 -62 69 -79 l 69 758 q 81 787 69 774 q 110 799 94 799 q 138 787 126 799 q 151 758 151 774 l 151 650 l 437 650 q 651 561 562 650 q 741 347 741 472 m 660 347 q 594 504 660 439 q 437 570 529 570 l 151 570 l 151 124 l 437 124 q 594 190 529 124 q 660 347 660 256 z "},"Ž":{"ha":830,"x_min":41,"x_max":812,"o":"m 812 52 q 800 24 812 36 q 772 12 788 12 l 80 12 q 41 52 41 12 q 50 77 41 66 l 685 833 l 81 833 q 53 846 65 833 q 41 874 41 858 q 53 902 41 890 q 81 914 65 914 l 772 914 q 800 902 788 914 q 812 874 812 890 q 798 842 812 859 l 168 93 l 772 93 q 800 81 788 93 q 812 52 812 68 m 595 1233 q 593 1219 595 1221 l 469 1044 q 426 1007 442 1007 q 383 1044 410 1007 l 259 1219 q 257 1233 257 1221 q 298 1273 257 1273 q 336 1246 317 1273 l 426 1118 l 516 1246 q 555 1273 535 1273 q 595 1233 595 1273 z "},"ž":{"ha":729,"x_min":41,"x_max":712,"o":"m 712 52 q 700 24 712 36 q 671 12 688 12 l 80 12 q 41 52 41 12 q 50 77 41 66 l 585 718 l 81 718 q 53 730 65 718 q 41 758 41 742 q 53 787 41 774 q 81 799 65 799 l 671 799 q 700 787 688 799 q 712 758 712 774 q 698 727 712 743 l 168 93 l 671 93 q 700 81 688 93 q 712 52 712 68 m 545 1118 q 543 1103 545 1106 l 418 928 q 376 892 392 892 q 333 928 359 892 l 209 1103 q 207 1118 207 1106 q 248 1158 207 1158 q 286 1131 267 1158 l 376 1003 l 466 1131 q 505 1158 485 1158 q 545 1118 545 1158 z "},"€":{"ha":1130,"x_min":98,"x_max":1055,"o":"m 1055 172 q 993 102 1055 142 q 724 12 857 12 q 467 93 582 12 q 301 307 353 176 l 139 307 q 111 319 123 307 q 98 347 98 331 q 111 376 98 363 q 139 388 123 388 l 279 388 q 274 431 275 412 q 272 463 272 450 q 274 495 272 477 q 279 538 275 514 l 197 538 q 168 550 180 538 q 156 578 156 562 q 168 607 156 595 q 197 619 180 619 l 301 619 q 467 833 353 751 q 724 914 582 914 q 993 824 857 914 q 1055 753 1055 783 q 1042 725 1055 737 q 1014 713 1030 713 q 977 729 996 713 q 962 744 969 736 q 947 758 954 751 q 724 833 860 833 q 527 774 615 833 q 387 619 439 717 l 845 619 q 873 607 861 619 q 886 578 886 595 q 873 550 886 562 q 845 538 861 538 l 361 538 q 355 498 357 517 q 353 463 353 479 q 355 429 353 448 q 361 388 357 410 l 787 388 q 815 376 803 388 q 827 347 827 363 q 815 319 827 331 q 787 307 803 307 l 387 307 q 527 151 439 209 q 724 93 616 93 q 947 168 860 93 q 962 182 954 175 q 977 197 969 189 q 1014 213 996 213 q 1042 201 1030 213 q 1055 172 1055 189 z "}}}
